<?xml version="1.0" standalone="no"?>
<!DOCTYPE svg PUBLIC "-//W3C//DTD SVG 20010904//EN"
 "http://www.w3.org/TR/2001/REC-SVG-20010904/DTD/svg10.dtd">
<svg version="1.0" xmlns="http://www.w3.org/2000/svg"
 width="940.000000pt" height="940.000000pt" viewBox="0 0 940.000000 940.000000"
 preserveAspectRatio="xMidYMid meet">
<metadata>
Created by potrace 1.14, written by Peter Selinger 2001-2017
</metadata>
<g transform="translate(0.000000,940.000000) scale(0.100000,-0.100000)"
fill="#000000" stroke="none">
<path d="M4742 7632 c-7 -9 -10 -11 -7 -4 7 15 -11 16 -20 2 -5 -8 -12 -7 -23
2 -12 10 -14 10 -8 1 4 -7 2 -13 -3 -13 -6 0 -11 6 -11 13 0 8 -3 7 -10 -3 -5
-8 -12 -11 -16 -7 -4 4 -14 1 -22 -6 -13 -10 -14 -9 -7 3 7 13 6 13 -7 2 -13
-10 -17 -10 -21 0 -4 10 -6 10 -6 -1 -1 -11 -4 -11 -18 0 -11 10 -14 10 -9 2
5 -10 -5 -13 -39 -13 -26 0 -74 -7 -107 -16 -65 -16 -201 -73 -206 -86 -2 -4
-11 -8 -20 -8 -9 0 -28 -9 -42 -20 -14 -11 -31 -20 -37 -20 -7 0 -13 -4 -13
-10 0 -5 -7 -10 -15 -10 -8 0 -15 -4 -15 -8 0 -4 -13 -16 -29 -25 -45 -26
-154 -123 -240 -211 -117 -121 -149 -155 -153 -163 -6 -15 -102 -158 -108
-163 -11 -8 -139 -270 -149 -304 -5 -17 -23 -69 -41 -116 -17 -47 -33 -92 -35
-100 -18 -87 -45 -221 -49 -245 -2 -16 -7 -48 -11 -70 -15 -101 -28 -255 -28
-340 0 -58 -8 -77 -36 -86 -8 -3 -16 -16 -18 -29 -2 -13 -10 -31 -18 -39 -7
-9 -14 -20 -14 -24 1 -4 -12 -40 -27 -80 -16 -40 -27 -75 -26 -79 1 -5 -3 -8
-10 -8 -6 0 -9 -3 -5 -6 3 -3 1 -18 -5 -33 -5 -14 -11 -33 -13 -41 -2 -8 -11
-44 -20 -80 -9 -36 -18 -72 -20 -80 -2 -8 -4 -15 -5 -15 -1 0 -3 -9 -5 -20 -4
-23 -15 -78 -22 -115 -2 -14 -6 -41 -8 -60 -2 -19 -4 -35 -5 -35 -1 0 -3 -18
-4 -40 -1 -22 -4 -44 -7 -50 -10 -17 1 -400 11 -400 1 0 3 -11 4 -25 9 -89 55
-299 75 -345 14 -31 42 -113 42 -122 0 -5 8 -16 16 -25 9 -10 13 -18 10 -18
-12 0 85 -175 144 -260 76 -110 114 -155 224 -265 106 -105 128 -124 215 -184
36 -25 67 -49 68 -53 2 -4 8 -8 14 -8 5 0 40 -18 76 -39 110 -65 368 -161 472
-176 19 -2 62 -9 95 -14 33 -5 132 -7 220 -5 136 2 186 5 272 13 6 1 34 49 63
109 28 59 55 114 59 123 9 16 58 136 84 206 18 46 53 179 61 233 3 19 8 45 10
57 3 11 7 43 11 70 4 26 8 59 11 73 25 162 22 557 -6 695 -6 28 -12 64 -15 80
-20 149 -121 433 -190 537 -14 21 -25 40 -25 43 0 12 -130 199 -150 215 -4 3
-9 12 -12 20 -9 24 -175 122 -226 135 -47 11 -47 12 -95 108 -44 89 -102 234
-112 281 -3 11 -12 42 -22 70 -9 28 -18 53 -18 56 -18 89 -18 105 0 106 6 0
42 6 80 14 74 15 335 20 420 8 57 -8 73 -11 135 -28 25 -7 45 -11 45 -11 0 1
16 -5 35 -13 19 -8 40 -15 45 -16 12 -3 38 -13 88 -33 20 -9 37 -13 37 -9 0 4
4 2 8 -4 4 -5 30 -20 57 -33 44 -21 153 -83 180 -104 6 -4 28 -21 50 -37 103
-76 304 -273 297 -292 -1 -5 2 -8 7 -8 7 0 52 -61 96 -131 22 -36 75 -139 73
-143 -2 -2 6 -13 16 -25 11 -12 16 -21 12 -21 -3 0 0 -10 8 -22 34 -52 100
-282 112 -388 17 -151 25 -470 12 -470 -4 0 -12 19 -18 43 -87 341 -173 563
-300 773 -137 227 -350 446 -585 599 -122 80 -338 175 -397 175 -15 0 -9 -12
30 -62 44 -58 60 -79 103 -144 9 -13 27 -37 40 -52 13 -15 44 -57 68 -92 25
-36 48 -67 51 -70 15 -11 125 -201 171 -295 68 -140 113 -266 163 -460 31
-120 42 -226 41 -383 -2 -119 -6 -154 -20 -141 -2 3 -6 41 -9 84 -8 104 -18
190 -31 255 -3 14 -7 34 -9 45 -70 355 -267 749 -482 961 -68 67 -151 119
-254 159 -59 23 -67 19 -30 -15 7 -6 257 -383 322 -485 42 -66 105 -185 142
-268 32 -70 102 -287 112 -342 2 -16 9 -56 15 -88 36 -206 43 -567 14 -777 -3
-19 -9 -69 -15 -110 -16 -124 -18 -134 -39 -220 -7 -25 -14 -56 -17 -69 -9
-41 -64 -215 -74 -233 -6 -10 -10 -22 -10 -27 0 -5 -8 -26 -17 -47 -9 -22 -16
-42 -15 -46 1 -5 -3 -8 -8 -8 -5 0 -9 -3 -8 -7 1 -5 -4 -19 -12 -33 -7 -14
-13 -27 -13 -30 2 -12 -88 -188 -102 -200 -8 -7 -12 -16 -10 -20 3 -5 -6 -20
-20 -34 -14 -14 -23 -26 -20 -26 3 0 -10 -21 -30 -46 -19 -26 -35 -51 -35 -56
0 -5 -5 -6 -12 -2 -6 4 -8 3 -5 -3 8 -13 -45 -74 -158 -185 -127 -124 -131
-128 -144 -128 -6 0 -11 -4 -11 -8 0 -5 -43 -38 -95 -73 -79 -53 -91 -65 -77
-74 9 -5 105 -11 215 -13 l197 -4 73 34 c39 18 74 36 75 40 2 5 7 8 12 8 14 0
139 73 244 143 31 20 61 37 66 37 6 0 10 4 10 9 0 4 19 21 43 36 23 16 91 76
150 134 60 58 112 108 115 111 4 3 27 30 52 60 24 30 52 63 62 73 10 10 18 21
18 25 0 4 10 18 23 32 13 14 38 48 57 75 19 28 37 52 42 53 4 2 8 10 8 18 0 8
4 14 9 14 5 0 11 8 15 18 3 9 24 46 47 82 110 172 242 454 221 474 -3 3 0 6 6
6 7 0 11 3 10 8 -2 7 30 110 41 127 3 6 6 15 7 20 1 6 24 57 52 115 43 91 70
160 78 195 1 6 10 39 19 75 9 36 18 76 21 90 2 14 9 48 14 75 29 153 30 548 0
679 -5 25 -13 62 -16 80 -3 19 -14 65 -25 103 -11 37 -22 76 -24 85 -2 9 -14
39 -26 65 -12 26 -22 51 -21 54 2 10 -118 230 -133 246 -8 7 -17 22 -20 33 -3
11 -11 20 -16 20 -5 0 -9 5 -9 11 0 6 -29 48 -64 93 -93 117 -181 205 -286
286 -25 19 -48 40 -52 45 -4 6 -8 7 -8 3 0 -5 -12 2 -26 15 -14 12 -26 20 -27
17 -1 -2 -14 6 -28 18 -88 77 -453 235 -570 247 -9 1 -29 6 -45 10 -16 5 -33
9 -39 9 -234 30 -461 24 -572 -13 -29 -10 -55 -15 -57 -12 -4 8 1 244 7 301 8
73 18 131 33 195 21 87 21 86 38 133 8 23 12 42 8 42 -4 0 -1 4 6 8 7 5 14 18
17 30 5 27 78 173 108 215 139 200 319 340 469 363 21 4 38 11 38 16 0 5 -4 7
-9 3 -5 -3 -12 -1 -16 5 -4 6 -11 8 -16 5 -5 -4 -9 -1 -9 5 0 8 -6 8 -21 0
-15 -9 -24 -8 -37 2 -9 8 -13 8 -9 1 5 -7 1 -10 -10 -8 -10 2 -18 4 -18 5 0 2
-21 7 -52 14 -10 2 -24 -2 -32 -8 -11 -8 -13 -8 -8 1 12 19 -8 23 -21 5z"/>
<path d="M4865 2790 c-16 -7 -17 -9 -3 -9 9 -1 20 4 23 9 7 11 7 11 -20 0z"/>
<path d="M4801 2687 c-13 -21 -12 -21 5 -5 10 10 16 20 13 22 -3 3 -11 -5 -18
-17z"/>
</g>
</svg>
