<?xml version="1.0" standalone="no"?>
<!DOCTYPE svg PUBLIC "-//W3C//DTD SVG 20010904//EN"
 "http://www.w3.org/TR/2001/REC-SVG-20010904/DTD/svg10.dtd">
<svg version="1.0" xmlns="http://www.w3.org/2000/svg"
 width="512.000000pt" height="512.000000pt" viewBox="0 0 512.000000 512.000000"
 preserveAspectRatio="xMidYMid meet">
<metadata>
Created by potrace 1.14, written by Peter Selinger 2001-2017
</metadata>
<g transform="translate(0.000000,512.000000) scale(0.100000,-0.100000)"
fill="#000000" stroke="none">
<path d="M0 2560 l0 -2560 2560 0 2560 0 0 2560 0 2560 -2560 0 -2560 0 0
-2560z m2737 1660 c94 -162 405 -702 692 -1199 287 -496 525 -910 528 -918 6
-14 -34 -15 -383 -9 -214 4 -390 9 -391 10 -12 11 -1003 1739 -1003 1748 0 6
73 142 161 302 214 386 210 379 219 369 4 -4 84 -141 177 -303z m-280 -2078
l703 -1217 -253 -2 c-138 -2 -316 0 -395 5 l-144 7 -504 874 -505 874 142 256
c224 403 241 433 247 426 4 -3 322 -554 709 -1223z"/>
</g>
</svg>
