<svg width="600" height="167" viewBox="0 0 600 167" fill="none" xmlns="http://www.w3.org/2000/svg">
<g clip-path="url(#clip0_287_892)">
<mask id="mask0_287_892" style="mask-type:luminance" maskUnits="userSpaceOnUse" x="0" y="0" width="600" height="167">
<path d="M600 0H0V166.507H600V0Z" fill="white"/>
</mask>
<g mask="url(#mask0_287_892)">
<path fill-rule="evenodd" clip-rule="evenodd" d="M39.0732 49.4344V73.9297V154.963H63.5917V73.9297H145.518V49.4344H63.5917H39.0732Z" fill="black"/>
<path fill-rule="evenodd" clip-rule="evenodd" d="M102.261 88.4336H77.7422V112.929H102.261V88.4336Z" fill="black"/>
<path fill-rule="evenodd" clip-rule="evenodd" d="M0 11.2484V35.7436V116.777H24.5185V35.7436H106.444V11.2484H24.5185H0Z" fill="black"/>
<path d="M203.926 62.2002H213.666V40.4802H237.703V32.5249H213.666V20.5734H248.333V12.4701H203.926V62.2002Z" fill="black"/>
<path d="M366.887 27.27C366.901 24.9689 366.488 22.685 365.664 20.5357C364.823 18.4702 363.41 16.6865 361.59 15.3925C359.856 14.2674 357.918 13.4884 355.886 13.0984C352.938 12.6279 349.949 12.4174 346.961 12.4694H318.703V62.1626H328.444V41.9228H342.591L356.592 62.1626H367.183L352.961 41.4786C362.271 40.1219 366.913 35.3856 366.887 27.27ZM345.812 33.6712H328.444V20.5728H345.812C347.618 20.537 349.424 20.6111 351.221 20.7948C352.257 20.9348 353.262 21.2607 354.184 21.7568C355.191 22.2316 356.027 23.0053 356.575 23.9721C357.126 24.939 357.364 26.052 357.258 27.159C357.359 28.2654 357.117 29.3762 356.569 30.3419C356.018 31.3076 355.188 32.0822 354.184 32.5613C353.233 33.002 352.223 33.3011 351.184 33.4493C349.401 33.6316 347.606 33.7056 345.812 33.6712Z" fill="black"/>
<path d="M425.148 12.4329L407.667 42.2192L391.111 12.4329H378.962V62.126H387.816V27.7885L406.74 61.46L426.741 27.7885V62.126H436.444V12.4329H425.148Z" fill="black"/>
<path d="M293.148 11.9515H267.222C265.575 11.9466 263.943 12.2665 262.42 12.8928C260.897 13.5192 259.512 14.4396 258.346 15.6014C257.179 16.7632 256.254 18.1436 255.623 19.6634C254.991 21.1832 254.666 22.8125 254.666 24.458V50.3592C254.676 53.6796 256.003 56.8604 258.356 59.2047C260.71 61.5493 263.898 62.8656 267.222 62.8656H293.148C296.464 62.8558 299.644 61.535 301.99 59.1918C304.335 56.8484 305.656 53.673 305.665 50.3592V24.458C305.656 21.1441 304.335 17.9686 301.99 15.6253C299.644 13.282 296.464 11.9612 293.148 11.9515ZM296.294 47.7321C296.383 48.5979 296.283 49.473 295.996 50.2955C295.711 51.1177 295.246 51.8675 294.641 52.4919C294.032 53.116 293.297 53.6001 292.482 53.9092C291.666 54.2181 290.794 54.3453 289.924 54.2813H270.666C269.795 54.3519 268.92 54.2296 268.102 53.9227C267.284 53.6158 266.545 53.1321 265.936 52.5063C265.327 51.8804 264.865 51.128 264.581 50.3026C264.297 49.4773 264.2 48.5994 264.296 47.7321V26.9001C264.244 26.0389 264.372 25.1764 264.67 24.3669C264.969 23.5573 265.432 22.8183 266.03 22.1962C266.629 21.5741 267.35 21.0825 268.147 20.7522C268.945 20.4218 269.803 20.26 270.666 20.2768H289.924C290.788 20.26 291.646 20.4218 292.444 20.7522C293.243 21.0825 293.963 21.5741 294.56 22.1962C295.16 22.8183 295.622 23.5573 295.921 24.3669C296.22 25.1764 296.346 26.0389 296.294 26.9001V47.7321Z" fill="black"/>
<path d="M203.852 118.997H213.555V97.2768H237.592V89.3586H213.555V77.37H248.259V69.2666H203.852V118.997Z" fill="black"/>
<path d="M541.926 84.0674C541.943 81.7782 541.527 79.5063 540.703 77.3701C539.859 75.2842 538.432 73.4856 536.592 72.19C534.861 71.0649 532.92 70.2976 530.888 69.9327C527.954 69.4263 524.977 69.2032 522 69.2666H493.739V118.96H503.443V98.72H517.63L531.628 118.96H542.222L527.962 98.2759C537.295 96.9439 541.926 92.2079 541.926 84.0674ZM520.814 90.4688H503.443V77.4071H520.814C522.631 77.3704 524.451 77.4444 526.26 77.629C527.299 77.7574 528.304 78.0841 529.223 78.591C530.222 79.0639 531.054 79.8315 531.602 80.791C532.154 81.7504 532.395 82.8554 532.297 83.9563C532.383 85.0659 532.139 86.1763 531.591 87.1452C531.043 88.1144 530.219 88.8978 529.223 89.3956C528.249 89.8079 527.23 90.0941 526.185 90.2466C524.4 90.4297 522.608 90.5038 520.814 90.4688Z" fill="black"/>
<path d="M274.445 69.304L251.371 118.96L260.853 119.145L278.741 81.4774L296.371 118.96H306.74L283.075 69.304H274.445Z" fill="black"/>
<path d="M473.406 69.0453H447.666C444.365 69.0353 441.193 70.3283 438.841 72.6431C436.49 74.9575 435.15 78.1062 435.109 81.4039V107.305C435.121 110.625 436.447 113.806 438.801 116.151C441.155 118.495 444.342 119.812 447.666 119.812H473.406C476.73 119.812 479.92 118.495 482.271 116.151C484.625 113.806 485.951 110.625 485.963 107.305V81.4039C485.914 78.1094 484.571 74.9661 482.219 72.6537C479.871 70.3412 476.705 69.0451 473.406 69.0453ZM476.555 104.826C476.639 105.694 476.529 106.569 476.24 107.392C475.95 108.214 475.484 108.963 474.873 109.586C474.264 110.21 473.524 110.693 472.708 111.002C471.893 111.311 471.018 111.438 470.148 111.375H450.887C450.012 111.458 449.128 111.344 448.301 111.042C447.474 110.74 446.725 110.258 446.107 109.631C445.49 109.004 445.022 108.247 444.732 107.416C444.445 106.585 444.348 105.7 444.445 104.826V83.994C444.394 83.1359 444.52 82.2766 444.816 81.4696C445.111 80.6627 445.573 79.9254 446.168 79.3039C446.762 78.6824 447.477 78.19 448.269 77.8573C449.064 77.5246 449.917 77.3589 450.778 77.3707H470.036C470.903 77.3486 471.764 77.5068 472.568 77.8346C473.369 78.1628 474.095 78.6537 474.698 79.2763C475.298 79.8987 475.766 80.6397 476.067 81.4519C476.366 82.264 476.495 83.1296 476.443 83.994L476.555 104.826Z" fill="black"/>
<path d="M379.148 78.8503H399.187V118.997H408.89V97.2772V89.3589V78.8503H420.778H428.928V69.1561H379.148V78.8503Z" fill="black"/>
<path d="M317.518 81.4037V107.305C317.526 110.619 318.85 113.794 321.195 116.138C323.541 118.481 326.719 119.802 330.037 119.811H367.852V110.265C367.481 110.265 353.739 110.265 353.334 110.265H332.48C331.625 110.352 330.758 110.252 329.942 109.973C329.13 109.693 328.384 109.241 327.761 108.647C327.138 108.053 326.653 107.331 326.334 106.53C326.018 105.73 325.877 104.871 325.926 104.012V84.7708C325.854 83.901 325.978 83.0265 326.285 82.2095C326.592 81.3925 327.075 80.6535 327.7 80.0455C328.329 79.4371 329.081 78.9749 329.908 78.6916C330.735 78.4082 331.613 78.3109 332.48 78.4065H367.852V69.0081H330.037C326.739 69.0175 323.575 70.3232 321.235 72.6425C318.893 74.9621 317.558 78.1091 317.518 81.4037Z" fill="black"/>
<path d="M589.186 70.0067L575.446 89.4326L561.965 70.0067H550.594L570.52 98.683V119.293H580.149V98.683L600 70.0067H589.186Z" fill="black"/>
<path d="M343.742 139.459C343.536 137.697 342.643 136.086 341.256 134.977C339.87 133.869 338.101 133.352 336.336 133.539C335.113 133.608 333.916 133.923 332.819 134.466C331.719 135.009 330.743 135.769 329.948 136.699C329.153 137.629 328.553 138.71 328.185 139.878C327.821 141.045 327.695 142.275 327.815 143.492C327.815 149.45 330.631 153.853 336.336 153.853C338.248 153.88 340.102 153.188 341.529 151.913C342.956 150.638 343.852 148.874 344.038 146.971H345.706C345.534 149.333 344.449 151.535 342.677 153.111C340.906 154.686 338.592 155.509 336.224 155.407C329.038 155.407 325.926 149.672 325.926 143.492C325.771 142.066 325.918 140.622 326.357 139.255C326.793 137.888 327.514 136.628 328.473 135.558C329.429 134.487 330.6 133.628 331.909 133.039C333.218 132.449 334.639 132.14 336.074 132.133C337.165 132.005 338.268 132.096 339.321 132.4C340.375 132.705 341.357 133.218 342.209 133.907C343.062 134.597 343.768 135.45 344.285 136.416C344.805 137.382 345.123 138.442 345.224 139.533L343.742 139.459Z" fill="black"/>
<path d="M349.628 143.899C349.628 149.117 352.295 153.853 357.778 153.853C359.684 153.944 361.556 153.319 363.023 152.099C364.49 150.88 365.446 149.156 365.705 147.267H367.332C367.243 148.429 366.925 149.563 366.396 150.602C365.868 151.641 365.139 152.566 364.249 153.323C363.362 154.079 362.334 154.653 361.223 155.011C360.112 155.368 358.941 155.503 357.778 155.407C356.377 155.402 354.996 155.1 353.722 154.523C352.45 153.945 351.313 153.103 350.389 152.054C349.464 151.005 348.775 149.772 348.362 148.436C347.951 147.101 347.828 145.693 348 144.306C348 138.238 351.109 132.355 357.778 132.355C364.444 132.355 367.852 137.757 367.519 144.121L349.628 143.899ZM365.888 142.493C365.954 141.371 365.794 140.247 365.42 139.188C365.047 138.128 364.464 137.152 363.709 136.319C362.954 135.486 362.041 134.811 361.022 134.334C360.006 133.856 358.901 133.586 357.778 133.539C355.539 133.726 353.452 134.754 351.939 136.415C350.429 138.076 349.602 140.248 349.628 142.493H365.888Z" fill="black"/>
<path d="M405.703 143.899C405.703 149.117 408.37 153.853 413.85 153.853C415.757 153.936 417.623 153.307 419.087 152.089C420.554 150.871 421.513 149.152 421.777 147.267H423.407C423.318 148.429 423 149.563 422.472 150.602C421.943 151.641 421.211 152.566 420.324 153.323C419.437 154.079 418.406 154.653 417.295 155.011C416.184 155.368 415.016 155.503 413.85 155.407C412.452 155.402 411.072 155.1 409.797 154.523C408.525 153.945 407.388 153.103 406.464 152.054C405.539 151.005 404.848 149.772 404.437 148.436C404.024 147.101 403.9 145.693 404.072 144.306C404.072 138.238 407.147 132.355 413.85 132.355C420.557 132.355 423.927 137.757 423.557 144.121L405.703 143.899ZM421.926 142.493C422.001 141.372 421.849 140.247 421.481 139.185C421.114 138.123 420.537 137.146 419.784 136.311C419.029 135.476 418.116 134.8 417.1 134.324C416.081 133.848 414.976 133.581 413.85 133.539C411.611 133.726 409.527 134.754 408.014 136.415C406.504 138.076 405.677 140.248 405.703 142.493H421.926Z" fill="black"/>
<path d="M370.923 132.651H372.554V137.35C373.174 135.769 374.268 134.418 375.689 133.484C377.107 132.549 378.781 132.078 380.48 132.133C388.295 132.133 388.369 138.349 388.369 141.087V154.741H386.739V140.606C386.739 138.386 386.48 133.391 380.443 133.391C379.292 133.412 378.155 133.677 377.113 134.167C376.068 134.657 375.141 135.362 374.388 136.235C373.636 137.108 373.079 138.131 372.749 139.234C372.422 140.339 372.33 141.5 372.479 142.642V154.593H370.852L370.923 132.651Z" fill="black"/>
<path d="M400.998 134.057H396.296V149.487C396.296 153.187 397.998 153.446 401.11 153.187V154.593C397.815 154.815 394.444 154.334 394.665 149.339V134.057H390.592V132.651H394.665V125.806H396.296V132.725H401.148L400.998 134.057Z" fill="black"/>
<path d="M429.149 137.535C429.852 135.911 431.05 134.549 432.574 133.646C434.096 132.742 435.867 132.342 437.629 132.503V134.131C436.516 134.003 435.387 134.129 434.328 134.501C433.269 134.873 432.31 135.48 431.52 136.277C430.676 137.103 430.019 138.096 429.586 139.192C429.152 140.289 428.951 141.464 429 142.641V154.741H427.372V132.54H429L429.149 137.535Z" fill="black"/>
<path d="M204 132.651H207.963V128.063C207.963 124.955 210.222 123.696 212.852 123.696C213.493 123.65 214.137 123.65 214.778 123.696V125.14C214.145 125.003 213.5 124.929 212.852 124.918C211 124.918 209.629 125.547 209.629 128.026V132.466H214.222V133.872H209.629V154.556H207.963V134.057H204V132.651ZM216.333 124.029H217.963V128.47H216.333V124.029ZM216.333 132.651H217.963V154.852H216.333V132.651Z" fill="black"/>
<path d="M230.889 134.057H225.926V149.487C225.926 153.187 227.592 153.446 230.704 153.187V154.593C227.444 154.815 224.074 154.334 224.296 149.339V134.057H220.333V132.651H224.444V125.806H225.926V132.725H230.741L230.889 134.057Z" fill="black"/>
<path d="M233.333 132.65H234.963V137.349C235.573 135.762 236.665 134.405 238.087 133.469C239.508 132.533 241.188 132.066 242.889 132.132C250.666 132.132 250.778 138.349 250.778 141.087V154.74H249.111V140.606C249.111 138.386 248.851 133.39 242.814 133.39C241.662 133.412 240.526 133.676 239.483 134.166C238.44 134.656 237.512 135.361 236.76 136.234C236.008 137.108 235.45 138.13 235.121 139.234C234.792 140.338 234.7 141.499 234.852 142.641V154.592H233.333V132.65Z" fill="black"/>
<path d="M256.075 143.899C256.075 149.117 258.742 153.853 264.224 153.853C266.128 153.936 267.995 153.307 269.46 152.089C270.926 150.871 271.884 149.152 272.15 147.267H273.779C273.69 148.429 273.372 149.563 272.843 150.602C272.314 151.641 271.585 152.566 270.696 153.323C269.809 154.079 268.779 154.653 267.668 155.011C266.558 155.368 265.387 155.503 264.224 155.407C262.825 155.402 261.443 155.1 260.169 154.523C258.896 153.945 257.759 153.103 256.835 152.054C255.911 151.005 255.22 149.772 254.809 148.436C254.397 147.101 254.273 145.693 254.446 144.306C254.446 138.238 257.52 132.355 264.224 132.355C270.927 132.355 274.298 137.757 273.927 144.121L256.075 143.899ZM272.298 142.493C272.373 141.372 272.222 140.247 271.854 139.185C271.486 138.123 270.909 137.146 270.156 136.311C269.403 135.476 268.49 134.8 267.471 134.324C266.452 133.848 265.348 133.581 264.224 133.539C261.984 133.726 259.898 134.754 258.386 136.415C256.875 138.076 256.049 140.248 256.075 142.493H272.298Z" fill="black"/>
<path d="M278.111 147.377C278.147 148.297 278.371 149.199 278.768 150.03C279.165 150.86 279.727 151.601 280.42 152.207C281.114 152.813 281.923 153.271 282.8 153.554C283.676 153.837 284.602 153.938 285.518 153.852C288.408 153.852 292.556 153.001 292.556 149.153C292.556 141.753 277.333 146.822 277.333 137.794C277.333 133.464 281.593 132.132 285.333 132.132C290.001 132.132 293.518 134.13 293.518 139.163H291.89C291.89 135.166 289.037 133.538 285.333 133.538C282.37 133.538 278.963 134.649 278.963 137.794C278.963 140.939 282.667 141.827 286.37 142.641C290.776 143.492 294.221 144.565 294.221 149.153C294.221 153.741 289.332 155.406 285.444 155.406C284.325 155.542 283.19 155.44 282.113 155.106C281.036 154.773 280.042 154.216 279.196 153.472C278.349 152.728 277.67 151.813 277.202 150.788C276.735 149.763 276.489 148.651 276.481 147.525L278.111 147.377Z" fill="black"/>
<path d="M298.407 147.377C298.444 148.297 298.668 149.199 299.064 150.03C299.461 150.86 300.023 151.601 300.718 152.207C301.41 152.813 302.219 153.271 303.095 153.554C303.974 153.837 304.898 153.938 305.814 153.852C308.705 153.852 312.853 153.001 312.853 149.153C312.853 141.753 297.629 146.822 297.629 137.794C297.629 133.464 301.889 132.132 305.63 132.132C310.295 132.132 313.815 134.13 313.815 139.163H312.184C312.184 135.166 309.333 133.538 305.63 133.538C302.667 133.538 299.26 134.649 299.26 137.794C299.26 140.939 302.963 141.827 306.666 142.641C311.073 143.492 314.518 144.565 314.518 149.153C314.518 153.741 309.629 155.406 305.742 155.406C304.622 155.542 303.485 155.44 302.409 155.106C301.332 154.773 300.339 154.216 299.492 153.472C298.645 152.728 297.965 151.813 297.5 150.788C297.032 149.763 296.785 148.651 296.776 147.525L298.407 147.377Z" fill="black"/>
</g>
</g>
<defs>
<clipPath id="clip0_287_892">
<rect width="600" height="166.507" fill="white"/>
</clipPath>
</defs>
</svg>
