<svg width="912" height="912" viewBox="0 0 912 912" fill="none" xmlns="http://www.w3.org/2000/svg">
<mask id="mask0_26_61" style="mask-type:luminance" maskUnits="userSpaceOnUse" x="200" y="200" width="512" height="512">
<path d="M712 200H200V712H712V200Z" fill="white"/>
</mask>
<g mask="url(#mask0_26_61)">
<path d="M704.258 618.092C700.119 618.092 696.766 621.446 696.766 625.584V704.008C696.766 713.671 711.751 713.671 711.751 704.008V625.584C711.751 621.446 708.397 618.092 704.258 618.092Z" fill="white"/>
<path d="M704.258 449.112H645.421V422.095H663.415C674.368 422.095 683.278 413.185 683.278 402.232V219.865C683.278 208.911 674.368 200 663.415 200H383.88C372.926 200 364.016 208.911 364.016 219.865V246.767C364.016 256.431 379.001 256.431 379.001 246.767V219.865C379.001 217.174 381.189 214.985 383.88 214.985H663.416C666.105 214.985 668.294 217.174 668.294 219.865V365.152H645.422V285.323C645.422 282.85 644.202 280.537 642.162 279.141C640.123 277.744 637.526 277.443 635.22 278.337C633.26 279.097 591.923 295.978 583.125 365.151H379.001V285.728C379.001 276.065 364.016 276.065 364.016 285.728V402.232C364.016 413.185 372.926 422.095 383.88 422.095H484.527V449.112H314.405C331 432.534 332.621 406.283 332.621 384.226C332.621 380.088 329.267 376.733 325.128 376.733H284.668V362.588C308.704 367.697 334.906 347.986 334.586 322.982C334.543 319.633 334.127 316.23 331.033 314.187C316.801 304.794 297.2 308.708 284.668 318.966V305.45C306.08 290.671 307.67 255.869 287.094 239.625C285.021 237.989 282.728 236.431 280.267 235.428C269.706 231.117 258.097 249.927 255.581 257.188C249.636 274.345 255.013 294.078 269.681 304.965V318.883C260.064 311.058 247.503 307.198 235.232 309.656C230.161 310.672 221.275 312.967 220.169 319.114C215.415 345.564 245.379 367.709 269.682 362.61V376.733H226.225C222.086 376.733 218.732 380.088 218.732 384.226C218.732 406.252 219.927 432.536 236.521 449.112H207.743C203.604 449.112 200.25 452.466 200.25 456.604V704.008C200.25 713.671 215.235 713.671 215.235 704.008V669.042H350.603V704.008C350.603 713.671 365.589 713.671 365.589 704.008V513.194H630.545C630.584 515.805 630.834 529.866 630.864 534.08H504.059C474.437 534.08 452.49 541.79 438.825 556.996C422.419 575.253 424.579 597.383 424.68 598.315C425.087 602.122 428.3 605.009 432.13 605.009H528.929V618.496H499.458C489.794 618.496 489.794 633.482 499.458 633.482H528.929V696.515H433.023C423.359 696.515 423.359 711.5 433.023 711.5H533.749C534.581 711.818 535.479 712 536.422 712C537.365 712 538.263 711.818 539.094 711.5H639.821C649.484 711.5 649.484 696.515 639.821 696.515H543.914V605.01H593.971C611.173 605.01 623.607 600.864 631.986 592.333C646.671 577.382 646.223 552.35 645.657 520.656C645.613 518.204 645.57 515.711 645.532 513.193H696.765V583.625C696.765 593.289 711.75 593.289 711.75 583.625V456.604C711.75 452.466 708.397 449.112 704.258 449.112ZM297.181 328.371C306.824 322.253 315.213 323.694 319.58 325.237C318.262 340.769 299.379 352.07 284.946 347.178C285.552 342.372 287.991 334.201 297.181 328.371ZM247.378 343.956C241.012 339.917 235.597 332.962 234.897 325.233C249.903 319.958 267.548 331.644 269.503 347.178C262.226 349.646 253.758 348.003 247.378 343.956ZM277.562 251.119C290.109 260.664 289.547 282.448 277.518 292.133C273.806 289.081 268.208 282.661 268.208 271.712C268.207 260.293 273.919 253.982 277.562 251.119ZM233.823 391.719H317.522C316.254 432.194 304.174 448.164 275.675 448.164C246.787 448.165 235.038 432.709 233.823 391.719ZM621.296 581.832C615.88 587.346 606.943 590.025 593.971 590.025H439.779C440.472 584.043 442.782 575.014 449.972 567.013C460.674 555.103 478.871 549.065 504.06 549.065H630.673C630.053 563.75 627.833 575.177 621.296 581.832ZM668.293 380.137V402.233C668.293 404.923 666.105 407.111 663.415 407.111H645.421V380.137H668.293ZM618.717 311.249C622.797 305.86 626.899 301.849 630.436 298.939V486.619C626.911 483.599 622.839 479.48 618.788 474.009C604.188 454.29 596.469 426.007 596.469 392.217C596.469 358.477 604.164 330.479 618.717 311.249ZM583.499 422.096C584.929 432.181 587.048 441.155 589.631 449.113H562.767V422.096H583.499ZM379.001 402.232V380.136H581.796C581.328 389.119 581.382 398.134 581.965 407.11H383.88C381.189 407.111 379.001 404.922 379.001 402.232ZM499.513 422.096H547.782V449.113H499.513V422.096ZM595.515 464.097C603.322 480.781 613.014 491.558 620.855 498.209H215.235V464.097H595.515ZM215.235 654.057V591.118H350.603V654.057H215.235ZM350.603 576.133H215.235V513.194H350.603V576.133ZM645.421 498.209V464.097H696.765V498.209H645.421Z" fill="white"/>
<path d="M254.697 552.156H311.641C321.305 552.156 321.305 537.171 311.641 537.171H254.697C245.033 537.171 245.033 552.156 254.697 552.156Z" fill="white"/>
<path d="M311.641 615.095H254.697C245.033 615.095 245.033 630.08 254.697 630.08H311.641C321.305 630.08 321.305 615.095 311.641 615.095Z" fill="white"/>
</g>
<circle cx="456" cy="456" r="456" fill="white" fill-opacity="0.23"/>
</svg>
