<svg width="48" height="48" viewBox="0 0 48 48" fill="none" xmlns="http://www.w3.org/2000/svg">
<g clip-path="url(#clip0_31_148)">
<path d="M19.027 22H15.5C14.673 22 14 22.673 14 23.5V27H13V23.5C13 22.122 14.122 21 15.5 21H20.5C20.72 21 20.931 21.033 21.134 21.087C20.352 21.224 19.639 21.544 19.027 22ZM15 16C15 14.346 16.346 13 18 13C19.654 13 21 14.346 21 16C21 17.654 19.654 19 18 19C16.346 19 15 17.654 15 16ZM16 16C16 17.103 16.897 18 18 18C19.103 18 20 17.103 20 16C20 14.897 19.103 14 18 14C16.897 14 16 14.897 16 16ZM23 16C23 14.346 24.346 13 26 13C27.654 13 29 14.346 29 16C29 17.654 27.654 19 26 19C24.346 19 23 17.654 23 16ZM24 16C24 17.103 24.897 18 26 18C27.103 18 28 17.103 28 16C28 14.897 27.103 14 26 14C24.897 14 24 14.897 24 16ZM29 22V21H23.041C22.877 21 22.72 21.024 22.566 21.057C23.463 21.159 24.285 21.487 24.973 22H29ZM22 23C20.346 23 19 24.346 19 26C19 27.654 20.346 29 22 29C22.044 29 22.089 28.999 22.133 28.997C22.196 28.644 22.281 28.299 22.386 27.963C22.261 27.987 22.132 28.001 22.001 28.001C20.898 28.001 20.001 27.104 20.001 26.001C20.001 24.898 20.898 24.001 22.001 24.001C22.827 24.001 23.537 24.504 23.842 25.219C24.063 24.941 24.301 24.677 24.555 24.428C24.026 23.572 23.08 23.001 22.002 23.001L22 23ZM19.5 31C18.122 31 17 32.121 17 33.5V37H18V33.5C18 32.673 18.673 32 19.5 32H22.132C22.074 31.673 22.035 31.339 22.015 31H19.5ZM37 30.5C37 34.084 34.084 37 30.5 37C26.916 37 24 34.084 24 30.5C24 26.916 26.916 24 30.5 24C34.084 24 37 26.916 37 30.5ZM36 30.5C36 27.468 33.533 25 30.5 25C27.467 25 25 27.468 25 30.5C25 33.532 27.467 36 30.5 36C33.533 36 36 33.532 36 30.5ZM29.98 31.951C29.925 32.008 29.801 32.007 29.739 31.945L27.883 30.145L27.187 30.864L29.038 32.658C29.259 32.879 29.552 33 29.863 33C30.174 33 30.467 32.879 30.685 32.661L34.142 29.262L33.441 28.549L29.981 31.951H29.98Z" fill="#4A3AFF"/>
</g>
<circle cx="24" cy="24" r="23.5" stroke="#4A3AFF"/>
<defs>
<clipPath id="clip0_31_148">
<rect width="24" height="24" fill="white" transform="translate(13 13)"/>
</clipPath>
</defs>
</svg>
