<svg width="653" height="143" viewBox="0 0 653 143" fill="none" xmlns="http://www.w3.org/2000/svg">
<g clip-path="url(#clip0_25_24)">
<path d="M173.616 88.4621C172.785 88.4621 172.071 88.2245 171.596 87.7492C171.121 87.2739 170.883 86.5608 170.883 85.7291V4.10044C170.883 3.14989 171.121 2.43706 171.596 1.96179C172.071 1.48651 172.785 1.2489 173.616 1.2489H202.608C211.282 1.2489 218.292 3.2687 223.52 7.42736C228.748 11.586 231.362 17.8834 231.362 26.3196C231.362 32.9734 229.699 38.3202 226.372 42.2413C223.045 46.2811 218.411 48.8954 212.589 50.3212L232.669 84.4223C232.907 84.8976 233.026 85.3728 233.026 85.848C233.026 86.561 232.788 87.155 232.313 87.6303C231.838 88.1055 231.244 88.3431 230.531 88.3431H228.986C227.679 88.3431 226.61 87.9867 226.016 87.2738C225.421 86.5609 224.827 85.848 224.233 85.0162L204.39 51.5091H178.725V85.6102C178.725 86.4419 178.488 87.155 178.013 87.6303C177.537 88.1055 176.824 88.3431 175.874 88.3431H173.616V88.4621ZM178.725 44.1424H202.014C209.262 44.1424 214.609 42.7167 218.173 39.7462C221.738 36.7757 223.52 32.3794 223.52 26.4385C223.52 20.4975 221.738 16.1013 218.173 13.1308C214.609 10.1603 209.262 8.73456 202.014 8.73456H178.725V44.1424Z" fill="black"/>
<path d="M244.432 88.4621C243.719 88.4621 243.244 88.2245 242.65 87.7492C242.175 87.274 241.937 86.6799 241.937 85.967C241.937 85.4917 242.056 85.135 242.175 84.5409L273.662 3.6251C274.018 2.79337 274.375 2.19923 274.969 1.72396C275.563 1.24868 276.276 1.13 277.226 1.13H281.504C282.454 1.13 283.286 1.3675 283.761 1.72396C284.236 2.08041 284.712 2.79337 285.068 3.6251L316.555 84.5409C316.674 85.0162 316.793 85.4917 316.793 85.967C316.793 86.6799 316.555 87.274 316.08 87.7492C315.605 88.2245 315.011 88.4621 314.298 88.4621H311.803C310.971 88.4621 310.377 88.2245 309.902 87.7492C309.426 87.274 309.189 86.9174 309.07 86.561L301.347 66.5994H257.265L249.541 86.561C249.422 86.9174 249.185 87.274 248.71 87.7492C248.235 88.2245 247.64 88.4621 246.809 88.4621H244.432ZM260.354 59.2327H298.495L279.484 10.1604L260.354 59.2327Z" fill="black"/>
<path d="M361.586 89.7692C354.814 89.7692 349.11 88.5811 344.358 86.0859C339.605 83.5907 335.921 79.7886 333.307 74.6793C330.693 69.5701 329.386 62.9161 329.386 54.8364V4.2197C329.386 3.26915 329.624 2.55596 330.099 2.08068C330.574 1.60541 331.287 1.3678 332.119 1.3678H334.377C335.327 1.3678 336.04 1.60541 336.515 2.08068C336.991 2.55596 337.228 3.26915 337.228 4.2197V55.1928C337.228 64.4607 339.367 71.3524 343.764 75.7487C348.16 80.145 354.101 82.4025 361.468 82.4025C368.834 82.4025 374.775 80.145 379.053 75.7487C383.449 71.3524 385.588 64.4607 385.588 55.1928V4.2197C385.588 3.26915 385.826 2.55596 386.42 2.08068C387.014 1.60541 387.608 1.3678 388.439 1.3678H390.697C391.529 1.3678 392.242 1.60541 392.717 2.08068C393.192 2.55596 393.43 3.26915 393.43 4.2197V54.8364C393.43 62.9161 392.123 69.4513 389.628 74.6793C387.132 79.9074 383.449 83.5907 378.696 86.0859C374.181 88.4623 368.359 89.7692 361.586 89.7692Z" fill="black"/>
<path d="M419.217 88.4621C418.386 88.4621 417.673 88.2245 417.198 87.7492C416.722 87.2739 416.366 86.5608 416.366 85.7291V4.10044C416.366 3.14989 416.603 2.43706 417.198 1.96179C417.792 1.48651 418.386 1.2489 419.217 1.2489H422.307C423.138 1.2489 423.733 1.48639 424.208 1.84285C424.564 2.31813 424.921 2.55597 424.921 2.79361L453.2 57.9255L481.597 2.79361C481.716 2.55597 482.073 2.19931 482.429 1.84285C482.786 1.36758 483.38 1.2489 484.211 1.2489H487.182C488.132 1.2489 488.846 1.48651 489.321 1.96179C489.796 2.43706 490.034 3.14989 490.034 4.10044V85.7291C490.034 86.5608 489.796 87.2739 489.321 87.7492C488.846 88.2245 488.132 88.4621 487.182 88.4621H484.925C484.093 88.4621 483.38 88.2245 482.904 87.7492C482.429 87.2739 482.192 86.5608 482.192 85.7291V18.121L458.428 64.9358C458.071 65.7675 457.596 66.3616 457.002 66.8369C456.408 67.3122 455.576 67.4309 454.625 67.4309H451.893C450.942 67.4309 450.11 67.1934 449.516 66.8369C448.922 66.4805 448.447 65.7675 447.972 64.9358L424.208 18.121V85.7291C424.208 86.5608 423.97 87.2739 423.495 87.7492C423.02 88.2245 422.307 88.4621 421.475 88.4621H419.217Z" fill="black"/>
<path d="M516.289 88.4621C515.457 88.4621 514.744 88.2245 514.269 87.7492C513.793 87.2739 513.556 86.5608 513.556 85.7291V4.10044C513.556 3.14989 513.793 2.43706 514.269 1.96179C514.744 1.48651 515.457 1.2489 516.289 1.2489H564.886C565.836 1.2489 566.549 1.48651 567.024 1.96179C567.5 2.43706 567.737 3.14989 567.737 4.10044V6.00159C567.737 6.83333 567.5 7.42722 567.024 8.02131C566.549 8.61541 565.836 8.73456 564.886 8.73456H521.398V40.4591H562.153C563.104 40.4591 563.816 40.6967 564.292 41.1719C564.767 41.6472 565.005 42.3601 565.005 43.3106V45.2118C565.005 46.0435 564.767 46.7566 564.292 47.2318C563.816 47.7071 563.104 47.9447 562.153 47.9447H521.398V80.9764H565.836C566.787 80.9764 567.5 81.214 567.975 81.6893C568.45 82.1646 568.688 82.8774 568.688 83.828V85.7291C568.688 86.5608 568.45 87.2739 567.975 87.7492C567.5 88.2245 566.787 88.4621 565.836 88.4621H516.289Z" fill="black"/>
<path d="M581.048 88.4621C580.335 88.4621 579.859 88.2245 579.265 87.7492C578.79 87.274 578.552 86.6799 578.552 85.967C578.552 85.4917 578.671 85.135 578.79 84.5409L610.277 3.6251C610.634 2.79337 610.99 2.19923 611.584 1.72396C612.178 1.24868 612.891 1.13 613.842 1.13H618.119C619.07 1.13 619.902 1.3675 620.377 1.72396C620.852 2.08041 621.327 2.79337 621.684 3.6251L653.171 84.5409C653.289 85.0162 653.408 85.4917 653.408 85.967C653.408 86.6799 653.171 87.274 652.696 87.7492C652.22 88.2245 651.626 88.4621 650.913 88.4621H648.418C647.586 88.4621 646.992 88.2245 646.517 87.7492C646.042 87.274 645.804 86.9174 645.685 86.561L637.962 66.5994H593.88L586.157 86.561C586.038 86.9174 585.8 87.274 585.325 87.7492C584.85 88.2245 584.256 88.4621 583.424 88.4621H581.048ZM596.969 59.2327H635.11L616.099 10.1604L596.969 59.2327Z" fill="black"/>
<path d="M182.239 134.208C181.883 134.208 181.645 134.089 181.526 133.97C181.407 133.851 181.289 133.495 181.289 133.257V104.859H172.139C171.783 104.859 171.545 104.74 171.426 104.621C171.189 104.384 171.189 104.146 171.189 103.909V103.196C171.189 102.839 171.308 102.601 171.426 102.364C171.664 102.126 171.902 102.126 172.139 102.126H193.171C193.527 102.126 193.764 102.245 194.002 102.364C194.24 102.483 194.24 102.839 194.24 103.196V103.909C194.24 104.265 194.121 104.503 194.002 104.621C193.883 104.74 193.527 104.859 193.171 104.859H184.14V133.257C184.14 133.613 184.022 133.851 183.903 133.97C183.665 134.207 183.427 134.208 183.071 134.208H182.239Z" fill="#4A3AFF"/>
<path d="M207.43 134.207C206.955 134.207 206.599 134.088 206.242 133.85C206.005 133.613 205.767 133.375 205.648 133.019L197.212 111.631C197.212 111.393 197.093 111.275 197.093 111.156C197.093 110.918 197.212 110.68 197.331 110.562C197.45 110.443 197.687 110.324 197.925 110.324H198.875C199.232 110.324 199.47 110.443 199.588 110.562C199.707 110.68 199.826 110.918 199.945 111.037L207.668 130.88L215.392 111.037C215.51 110.918 215.51 110.799 215.748 110.562C215.867 110.443 216.104 110.324 216.461 110.324H217.411C217.649 110.324 217.887 110.443 218.006 110.562C218.124 110.68 218.243 110.918 218.243 111.156C218.243 111.275 218.243 111.512 218.124 111.631L209.688 133.019C209.569 133.375 209.332 133.613 209.094 133.85C208.856 134.088 208.381 134.207 207.906 134.207H207.43Z" fill="#4A3AFF"/>
<path d="M232.975 134.683C230.718 134.683 228.936 134.207 227.391 133.257C225.846 132.306 224.777 131.118 223.945 129.455C223.114 127.91 222.757 126.128 222.638 124.108C222.638 123.633 222.638 123.039 222.638 122.207C222.638 121.375 222.638 120.781 222.638 120.306C222.757 118.286 223.114 116.503 223.945 114.959C224.777 113.414 225.846 112.107 227.391 111.157C228.817 110.206 230.718 109.731 232.975 109.731C235.233 109.731 237.015 110.206 238.56 111.157C239.986 112.107 241.174 113.295 242.006 114.959C242.837 116.503 243.194 118.286 243.313 120.306C243.313 120.781 243.313 121.375 243.313 122.207C243.313 123.039 243.313 123.633 243.313 124.108C243.194 126.128 242.837 127.791 242.006 129.455C241.174 130.999 240.105 132.306 238.56 133.257C237.015 134.207 235.233 134.683 232.975 134.683ZM232.975 131.95C235.114 131.95 236.896 131.237 238.203 129.93C239.51 128.504 240.224 126.603 240.342 123.989C240.342 123.514 240.342 122.92 240.342 122.326C240.342 121.732 240.342 121.137 240.342 120.662C240.224 118.048 239.51 116.028 238.203 114.721C236.896 113.414 235.114 112.701 232.975 112.701C230.837 112.701 229.054 113.414 227.747 114.721C226.44 116.147 225.727 118.048 225.609 120.662C225.609 121.137 225.609 121.732 225.609 122.326C225.609 122.92 225.609 123.514 225.609 123.989C225.727 126.603 226.44 128.623 227.747 129.93C229.173 131.356 230.837 131.95 232.975 131.95Z" fill="#4A3AFF"/>
<path d="M254.359 106.879C254.122 106.879 253.884 106.879 253.765 106.76C253.646 106.642 253.29 106.523 252.933 106.166L248.893 102.245C248.537 101.889 248.299 101.532 248.299 101.294C248.299 100.938 248.537 100.819 248.893 100.819H249.725C249.963 100.819 250.082 100.819 250.319 100.938C250.557 100.938 250.676 101.057 250.794 101.176L254.478 103.909L258.162 101.176C258.28 101.057 258.399 101.057 258.637 100.938C258.874 100.819 259.112 100.819 259.231 100.819H260.062C260.538 100.819 260.657 100.938 260.657 101.294C260.657 101.532 260.419 101.889 260.062 102.245L256.022 106.166C255.666 106.523 255.429 106.642 255.191 106.76C254.953 106.879 254.715 106.879 254.478 106.879H254.359ZM250.557 134.208C250.2 134.208 249.963 134.089 249.844 133.97C249.725 133.851 249.607 133.494 249.607 133.257V111.394C249.607 111.038 249.725 110.8 249.844 110.681C249.963 110.562 250.319 110.325 250.557 110.325H251.27C251.626 110.325 251.864 110.444 251.983 110.681C252.22 110.919 252.339 111.157 252.339 111.394V113.533C252.933 112.463 253.646 111.632 254.716 111.157C255.785 110.681 257.092 110.325 258.637 110.325H260.3C260.657 110.325 260.894 110.444 261.013 110.562C261.251 110.8 261.251 111.038 261.251 111.275V111.87C261.251 112.226 261.132 112.464 261.013 112.582C260.775 112.701 260.538 112.82 260.3 112.82H258.28C256.498 112.82 254.953 113.414 253.884 114.484C252.814 115.553 252.221 116.979 252.221 118.88V133.138C252.221 133.494 252.101 133.732 251.864 133.851C251.626 134.089 251.388 134.089 251.151 134.089H250.557V134.208Z" fill="#4A3AFF"/>
<path d="M266.603 134.208C266.247 134.208 266.009 134.089 265.89 133.97C265.771 133.851 265.652 133.495 265.652 133.257V111.395C265.652 111.038 265.771 110.801 265.89 110.682C266.009 110.563 266.365 110.444 266.603 110.444H267.435C267.791 110.444 268.029 110.563 268.148 110.682C268.385 110.919 268.385 111.157 268.385 111.395V133.257C268.385 133.614 268.267 133.851 268.148 133.97C267.91 134.208 267.673 134.208 267.435 134.208H266.603ZM266.365 106.879C265.89 106.879 265.652 106.642 265.652 106.167C265.652 105.929 265.771 105.691 265.89 105.573L269.098 101.77C269.336 101.414 269.573 101.295 269.811 101.176C270.049 101.057 270.405 101.057 270.762 101.057H272.663C273.257 101.057 273.494 101.295 273.494 101.889C273.494 102.127 273.376 102.246 273.257 102.483L268.266 106.523C268.029 106.761 267.791 106.879 267.553 106.879C267.316 106.879 267.078 106.998 266.841 106.998H266.365V106.879Z" fill="#4A3AFF"/>
<path d="M276.82 134.208C276.463 134.208 276.225 134.089 276.107 133.97C275.988 133.851 275.869 133.495 275.869 133.257V111.395C275.869 111.038 275.988 110.8 276.107 110.682C276.225 110.563 276.582 110.444 276.82 110.444H277.651C278.008 110.444 278.245 110.563 278.364 110.682C278.602 110.919 278.602 111.157 278.602 111.395V112.939C279.315 111.989 280.265 111.157 281.335 110.682C282.404 110.206 283.711 109.85 285.137 109.85C288.583 109.85 291.078 111.276 292.504 114.128C293.217 112.821 294.286 111.751 295.593 111.038C296.9 110.206 298.564 109.85 300.346 109.85C302.009 109.85 303.435 110.206 304.742 110.919C306.049 111.632 307.119 112.82 307.832 114.246C308.544 115.672 308.901 117.573 308.901 119.712V133.138C308.901 133.495 308.782 133.733 308.663 133.852C308.426 134.089 308.188 134.089 307.95 134.089H307.119C306.762 134.089 306.525 133.97 306.406 133.852C306.287 133.733 306.168 133.376 306.168 133.138V120.187C306.168 118.167 305.93 116.623 305.336 115.434C304.742 114.365 304.029 113.533 303.079 113.058C302.128 112.583 301.059 112.345 299.989 112.345C299.039 112.345 298.088 112.583 297.138 113.058C296.187 113.533 295.355 114.365 294.761 115.434C294.167 116.504 293.811 118.167 293.811 120.187V133.138C293.811 133.495 293.692 133.733 293.573 133.852C293.454 133.97 293.098 134.089 292.86 134.089H292.028C291.672 134.089 291.434 133.97 291.315 133.852C291.078 133.614 291.078 133.376 291.078 133.138V120.187C291.078 118.167 290.721 116.623 290.127 115.434C289.533 114.365 288.702 113.533 287.751 113.058C286.8 112.583 285.85 112.345 284.781 112.345C283.83 112.345 282.88 112.583 281.929 113.058C280.978 113.533 280.147 114.365 279.553 115.434C278.958 116.504 278.602 118.167 278.602 120.068V133.02C278.602 133.376 278.483 133.614 278.364 133.733C278.127 133.97 277.889 133.97 277.651 133.97H276.82V134.208Z" fill="#4A3AFF"/>
<path d="M325.06 134.683C322.09 134.683 319.714 133.732 317.931 131.712C316.149 129.811 315.199 127.198 314.961 124.108C314.961 123.633 314.961 123.039 314.961 122.207C314.961 121.375 314.961 120.781 314.961 120.425C315.08 118.286 315.555 116.504 316.387 114.959C317.218 113.414 318.406 112.107 319.832 111.276C321.258 110.325 323.04 109.969 325.06 109.969C327.199 109.969 328.982 110.444 330.526 111.395C332.071 112.345 333.14 113.652 333.972 115.434C334.803 117.217 335.16 119.355 335.16 121.851V122.564C335.16 122.92 335.041 123.158 334.804 123.276C334.566 123.395 334.328 123.514 334.091 123.514H317.694C317.694 123.752 317.694 123.87 317.694 123.989C317.694 125.415 318.05 126.722 318.644 127.911C319.238 129.099 320.07 130.168 321.139 131C322.209 131.831 323.516 132.188 324.942 132.188C326.249 132.188 327.318 131.95 328.269 131.594C329.1 131.237 329.813 130.762 330.407 130.287C331.001 129.811 331.239 129.455 331.477 129.217C331.714 128.861 331.952 128.623 332.071 128.505C332.189 128.386 332.427 128.386 332.784 128.386H333.497C333.734 128.386 333.972 128.505 334.21 128.623C334.447 128.742 334.447 128.98 334.447 129.336C334.447 129.812 334.209 130.287 333.734 130.881C333.259 131.475 332.665 132.069 331.833 132.782C331.001 133.495 330.051 133.851 328.863 134.327C327.793 134.445 326.605 134.683 325.06 134.683ZM317.812 120.781H332.427V120.543C332.427 118.999 332.19 117.573 331.596 116.385C331.001 115.197 330.169 114.128 329.1 113.415C328.031 112.702 326.724 112.345 325.179 112.345C323.635 112.345 322.328 112.702 321.258 113.415C320.189 114.128 319.357 115.078 318.763 116.385C318.169 117.573 317.931 118.999 317.931 120.543V120.781H317.812Z" fill="#4A3AFF"/>
<path d="M354.29 143C353.934 143 353.696 142.882 353.577 142.763C353.34 142.644 353.339 142.287 353.339 142.05V111.395C353.339 111.038 353.458 110.8 353.577 110.682C353.815 110.444 354.052 110.444 354.29 110.444H355.122C355.478 110.444 355.716 110.563 355.834 110.682C356.072 110.919 356.072 111.157 356.072 111.395V113.533C356.785 112.464 357.855 111.632 359.043 110.919C360.231 110.206 361.894 109.85 363.795 109.85C365.578 109.85 367.122 110.207 368.311 110.801C369.499 111.395 370.568 112.226 371.281 113.296C371.994 114.365 372.588 115.553 372.944 116.742C373.301 117.93 373.539 119.355 373.539 120.662C373.539 121.138 373.539 121.613 373.539 122.207C373.539 122.801 373.539 123.277 373.539 123.752C373.539 125.059 373.301 126.366 372.944 127.673C372.588 128.98 371.994 130.168 371.281 131.119C370.568 132.069 369.499 133.02 368.311 133.614C367.122 134.208 365.578 134.564 363.795 134.564C361.894 134.564 360.35 134.208 359.043 133.495C357.855 132.782 356.785 131.95 356.072 130.881V141.812C356.072 142.169 355.953 142.406 355.834 142.525C355.716 142.763 355.359 142.763 355.122 142.763H354.29V143ZM363.558 131.95C365.34 131.95 366.766 131.594 367.835 130.762C368.905 129.93 369.618 128.861 370.093 127.673C370.568 126.366 370.806 125.059 370.925 123.514C370.925 122.682 370.925 121.85 370.925 120.9C370.925 119.474 370.568 118.049 370.093 116.742C369.618 115.435 368.905 114.365 367.835 113.652C366.766 112.939 365.34 112.464 363.558 112.464C361.776 112.464 360.35 112.82 359.28 113.652C358.211 114.484 357.379 115.553 356.904 116.742C356.429 117.93 356.072 119.236 356.072 120.544C356.072 121.019 356.072 121.613 356.072 122.326C356.072 123.039 356.072 123.633 356.072 124.108C356.072 125.296 356.429 126.603 356.904 127.792C357.379 128.98 358.211 129.93 359.399 130.762C360.469 131.594 361.776 131.95 363.558 131.95Z" fill="#4A3AFF"/>
<path d="M380.902 134.207C380.546 134.207 380.308 134.088 380.189 133.969C380.07 133.85 379.952 133.494 379.952 133.256V111.393C379.952 111.037 380.07 110.799 380.189 110.681C380.308 110.562 380.664 110.324 380.902 110.324H381.615C381.971 110.324 382.209 110.443 382.328 110.681C382.447 110.918 382.684 111.156 382.684 111.393V113.532C383.278 112.463 383.991 111.631 385.061 111.156C386.13 110.681 387.437 110.324 388.982 110.324H390.645C391.002 110.324 391.239 110.443 391.358 110.562C391.477 110.68 391.596 111.037 391.596 111.274V111.869C391.596 112.225 391.477 112.463 391.358 112.582C391.121 112.701 390.883 112.819 390.645 112.819H388.625C386.843 112.819 385.298 113.413 384.229 114.483C383.16 115.552 382.684 116.978 382.684 118.879V133.137C382.684 133.494 382.565 133.732 382.328 133.85C382.09 133.969 381.853 134.088 381.615 134.088H380.902V134.207Z" fill="#4A3AFF"/>
<path d="M405.025 134.683C402.768 134.683 400.985 134.207 399.441 133.257C398.015 132.306 396.827 131.118 395.995 129.455C395.163 127.91 394.807 126.128 394.688 124.108C394.688 123.633 394.688 123.039 394.688 122.207C394.688 121.375 394.688 120.781 394.688 120.306C394.688 118.286 395.163 116.503 395.995 114.959C396.827 113.414 397.896 112.107 399.441 111.157C400.867 110.206 402.768 109.731 405.025 109.731C407.283 109.731 409.065 110.206 410.61 111.157C412.036 112.107 413.224 113.295 414.056 114.959C414.887 116.622 415.244 118.286 415.362 120.306C415.362 120.781 415.362 121.375 415.362 122.207C415.362 123.039 415.362 123.633 415.362 124.108C415.362 126.128 414.887 127.791 414.056 129.455C413.224 130.999 412.154 132.306 410.61 133.257C409.065 134.207 407.283 134.683 405.025 134.683ZM405.025 131.95C407.164 131.95 408.946 131.237 410.253 129.93C411.56 128.623 412.273 126.603 412.392 123.989C412.392 123.514 412.392 122.92 412.392 122.326C412.392 121.732 412.392 121.137 412.392 120.662C412.273 118.048 411.56 116.028 410.253 114.721C408.946 113.414 407.164 112.701 405.025 112.701C402.886 112.701 401.104 113.414 399.797 114.721C398.49 116.147 397.777 118.048 397.658 120.662C397.658 121.137 397.658 121.732 397.658 122.326C397.658 122.92 397.658 123.514 397.658 123.989C397.777 126.603 398.49 128.623 399.797 129.93C401.104 131.237 402.886 131.95 405.025 131.95Z" fill="#4A3AFF"/>
<path d="M429.263 134.683C427.718 134.683 426.292 134.446 425.104 134.089C423.916 133.733 422.966 133.138 422.253 132.544C421.54 131.95 420.946 131.356 420.589 130.762C420.233 130.168 419.995 129.693 419.995 129.455C419.995 129.099 420.114 128.861 420.352 128.742C420.589 128.623 420.827 128.505 421.064 128.505H421.777C422.015 128.505 422.134 128.505 422.253 128.624C422.372 128.742 422.609 128.861 422.728 129.099C423.084 129.574 423.559 130.168 424.153 130.643C424.748 131.119 425.342 131.475 426.174 131.713C427.005 131.95 427.956 132.188 429.263 132.188C431.164 132.188 432.59 131.832 433.778 131.119C434.966 130.406 435.56 129.336 435.56 128.029C435.56 127.197 435.323 126.485 434.848 126.009C434.372 125.534 433.54 125.059 432.471 124.584C431.283 124.227 429.857 123.752 427.837 123.395C425.936 122.92 424.391 122.326 423.441 121.732C422.371 121.138 421.658 120.306 421.302 119.474C420.945 118.642 420.708 117.692 420.708 116.742C420.708 115.672 421.064 114.603 421.658 113.533C422.252 112.464 423.203 111.632 424.391 111.038C425.58 110.325 427.124 110.088 428.907 110.088C430.451 110.088 431.639 110.325 432.708 110.682C433.778 111.038 434.61 111.513 435.323 112.107C436.035 112.702 436.511 113.177 436.867 113.771C437.224 114.365 437.343 114.722 437.343 115.078C437.343 115.434 437.224 115.672 437.105 115.791C436.867 116.028 436.63 116.029 436.392 116.029H435.679C435.441 116.029 435.204 116.029 435.085 115.91C434.966 115.791 434.847 115.672 434.729 115.434C434.372 114.959 434.016 114.484 433.659 114.009C433.303 113.533 432.709 113.177 431.877 112.939C431.164 112.702 430.214 112.583 428.907 112.583C427.124 112.583 425.698 112.939 424.867 113.652C424.035 114.365 423.56 115.316 423.56 116.504C423.56 117.217 423.797 117.811 424.153 118.286C424.51 118.761 425.223 119.237 426.174 119.712C427.243 120.187 428.669 120.544 430.57 121.019C432.59 121.494 434.135 121.97 435.204 122.564C436.392 123.158 437.105 123.989 437.58 124.821C438.055 125.653 438.293 126.722 438.293 127.911C438.293 129.099 437.937 130.287 437.224 131.356C436.511 132.425 435.56 133.257 434.135 133.852C432.828 134.327 431.164 134.683 429.263 134.683Z" fill="#4A3AFF"/>
<path d="M452.315 134.207C450.77 134.207 449.463 133.851 448.513 133.256C447.562 132.662 446.968 131.712 446.612 130.524C446.255 129.336 446.018 128.028 446.018 126.603V113.057H442.453C442.096 113.057 441.859 112.938 441.74 112.82C441.502 112.582 441.502 112.344 441.502 112.107V111.513C441.502 111.156 441.621 110.919 441.74 110.8C441.859 110.681 442.215 110.562 442.453 110.562H446.018V102.839C446.018 102.482 446.136 102.245 446.255 102.126C446.374 102.007 446.73 101.888 446.968 101.888H447.8C448.156 101.888 448.394 102.007 448.513 102.126C448.632 102.245 448.75 102.601 448.75 102.839V110.562H454.454C454.81 110.562 455.048 110.681 455.167 110.8C455.285 110.919 455.404 111.275 455.404 111.513V112.107C455.404 112.463 455.285 112.701 455.167 112.82C454.929 112.938 454.691 113.057 454.454 113.057H448.75V126.484C448.75 128.147 448.988 129.335 449.582 130.286C450.176 131.237 451.127 131.712 452.434 131.712H454.929C455.286 131.712 455.523 131.831 455.642 131.95C455.761 132.187 455.879 132.425 455.879 132.663V133.256C455.879 133.613 455.761 133.851 455.642 133.969C455.404 134.207 455.167 134.207 454.929 134.207H452.315Z" fill="#4A3AFF"/>
<path d="M469.9 134.683C467.643 134.683 465.86 134.207 464.316 133.257C462.89 132.306 461.702 131.118 460.87 129.455C460.038 127.91 459.682 126.128 459.563 124.108C459.563 123.633 459.563 123.039 459.563 122.207C459.563 121.375 459.563 120.781 459.563 120.306C459.563 118.286 460.038 116.503 460.87 114.959C461.702 113.414 462.771 112.107 464.316 111.157C465.742 110.206 467.643 109.731 469.9 109.731C472.158 109.731 473.94 110.206 475.485 111.157C476.911 112.107 478.099 113.295 478.931 114.959C479.762 116.622 480.119 118.286 480.237 120.306C480.237 120.781 480.237 121.375 480.237 122.207C480.237 123.039 480.237 123.633 480.237 124.108C480.237 126.128 479.762 127.791 478.931 129.455C478.099 130.999 477.029 132.306 475.485 133.257C473.94 134.207 472.039 134.683 469.9 134.683ZM469.9 131.95C472.039 131.95 473.821 131.237 475.128 129.93C476.435 128.623 477.148 126.603 477.267 123.989C477.267 123.514 477.267 122.92 477.267 122.326C477.267 121.732 477.267 121.137 477.267 120.662C477.148 118.048 476.435 116.028 475.128 114.721C473.821 113.414 472.039 112.701 469.9 112.701C467.761 112.701 465.979 113.414 464.672 114.721C463.365 116.147 462.652 118.048 462.533 120.662C462.533 121.137 462.533 121.732 462.533 122.326C462.533 122.92 462.533 123.514 462.533 123.989C462.652 126.603 463.365 128.623 464.672 129.93C465.979 131.237 467.761 131.95 469.9 131.95Z" fill="#4A3AFF"/>
<path d="M487.486 134.207C487.129 134.207 486.892 134.088 486.773 133.969C486.654 133.85 486.535 133.494 486.535 133.256V111.393C486.535 111.037 486.654 110.799 486.773 110.681C486.892 110.562 487.248 110.324 487.486 110.324H488.199C488.555 110.324 488.793 110.443 488.912 110.681C489.031 110.918 489.268 111.156 489.268 111.393V113.532C489.862 112.463 490.575 111.631 491.645 111.156C492.714 110.681 494.021 110.324 495.566 110.324H497.229C497.586 110.324 497.823 110.443 497.942 110.562C498.061 110.68 498.18 111.037 498.18 111.274V111.869C498.18 112.225 498.061 112.463 497.942 112.582C497.704 112.701 497.467 112.819 497.229 112.819H495.209C493.427 112.819 491.882 113.413 490.813 114.483C489.743 115.552 489.268 116.978 489.268 118.879V133.137C489.268 133.494 489.149 133.732 488.912 133.85C488.674 133.969 488.436 134.088 488.199 134.088H487.486V134.207Z" fill="#4A3AFF"/>
<circle cx="68.5" cy="67.5" r="62.5" stroke="#4A3AFF" stroke-width="10"/>
<path d="M120.374 27.2707L79.2626 3.50692C73.2028 0.0611696 65.8362 0.0611696 59.7764 3.50692L18.6648 27.2707C12.605 30.7165 8.92188 37.2513 8.92188 44.1429V91.5516C8.92188 98.5619 12.605 104.978 18.6648 108.424L59.7764 132.188C65.8362 135.634 73.2028 135.634 79.2626 132.188L120.374 108.424C126.434 104.978 130.117 98.4431 130.117 91.5516V44.1429C130.117 37.2513 126.315 30.8353 120.374 27.2707ZM68.2125 27.2707L75.6982 34.756C74.8664 34.6372 73.9157 34.5185 72.9652 34.5185H72.0148L64.7666 27.2707H68.2125ZM60.8458 27.2707L68.0936 34.5185H64.6481L57.3999 27.2707H60.8458ZM88.6494 88.819L96.9669 101.533C98.868 104.503 96.7292 108.424 93.1646 108.424C91.6199 108.424 90.194 107.711 89.3623 106.404L76.2921 86.2049L67.3807 72.4219H55.0238V89.5318V90.3637V103.196C55.0238 105.691 53.0038 107.711 50.5086 107.711C48.0134 107.711 45.9934 105.691 45.9934 103.196V96.1857V95.3539V72.4219H45.7555V65.1741H75.2228C83.6589 65.1741 90.5505 58.2825 90.5505 49.8463C90.5505 43.9053 87.1049 38.7959 82.1145 36.3007L73.0841 27.2707H76.6486C86.0353 27.2707 94.1151 33.0928 97.5608 41.2913C97.7985 41.7666 97.9171 42.3607 98.1548 42.836C98.8677 45.0936 99.343 47.3511 99.343 49.8463C99.343 61.9659 89.8375 71.8278 77.8368 72.4219L88.6494 88.819Z" fill="#4A3AFF"/>
</g>
<defs>
<clipPath id="clip0_25_24">
<rect width="653" height="143" fill="white"/>
</clipPath>
</defs>
</svg>
