<svg width="912" height="912" viewBox="0 0 912 912" fill="none" xmlns="http://www.w3.org/2000/svg">
<path d="M456 908C705.633 908 908 705.633 908 456C908 206.367 705.633 4 456 4C206.367 4 4 206.367 4 456C4 705.633 206.367 908 456 908Z" fill="white" fill-opacity="0.23"/>
<path d="M702.483 422.433H625.833V396.883C625.833 394.625 624.936 392.458 623.339 390.861C621.742 389.264 619.575 388.367 617.317 388.367H600.283V371.333H668.417C670.675 371.333 672.842 370.436 674.439 368.839C676.036 367.242 676.933 365.075 676.933 362.817V260.617C676.933 258.358 676.036 256.192 674.439 254.594C672.842 252.997 670.675 252.1 668.417 252.1H481.05C478.791 252.1 476.625 252.997 475.028 254.594C473.431 256.192 472.533 258.358 472.533 260.617V362.817C472.533 365.075 473.431 367.242 475.028 368.839C476.625 370.436 478.791 371.333 481.05 371.333H549.183V388.367H532.15C529.891 388.367 527.725 389.264 526.128 390.861C524.531 392.458 523.633 394.625 523.633 396.883V422.433H421.433V385.386C421.405 377.853 418.883 370.541 414.261 364.592C409.638 358.643 403.176 354.393 395.883 352.505V260.617C395.883 227.742 365.318 201 327.75 201C290.182 201 259.617 227.742 259.617 260.617V352.512C252.325 354.4 245.864 358.649 241.242 364.597C236.62 370.544 234.097 377.854 234.067 385.386V422.433H208.517C206.258 422.433 204.092 423.331 202.494 424.928C200.897 426.525 200 428.691 200 430.95V482.05C200 484.309 200.897 486.475 202.494 488.072C204.092 489.669 206.258 490.567 208.517 490.567H225.55V703.483C225.55 705.742 226.447 707.908 228.044 709.506C229.642 711.103 231.808 712 234.067 712H676.933C679.192 712 681.358 711.103 682.956 709.506C684.553 707.908 685.45 705.742 685.45 703.483V490.567H702.483C704.742 490.567 706.908 489.669 708.506 488.072C710.103 486.475 711 484.309 711 482.05V430.95C711 428.691 710.103 426.525 708.506 424.928C706.908 423.331 704.742 422.433 702.483 422.433ZM489.567 354.3V269.133H659.9V354.3H600.283C600.283 347.524 597.591 341.025 592.8 336.233C588.008 331.442 581.51 328.75 574.733 328.75C567.957 328.75 561.458 331.442 556.667 336.233C551.875 341.025 549.183 347.524 549.183 354.3H489.567ZM566.217 354.3C566.217 352.041 567.114 349.875 568.711 348.278C570.308 346.681 572.475 345.783 574.733 345.783C576.992 345.783 579.158 346.681 580.756 348.278C582.353 349.875 583.25 352.041 583.25 354.3V388.367H566.217V354.3ZM540.667 405.4H608.8V422.433H540.667V405.4ZM327.75 218.033C355.928 218.033 378.85 237.138 378.85 260.617V349.964L353.3 346.773V337.049C358.57 333.114 362.852 328.008 365.808 322.133C368.764 316.258 370.314 309.776 370.333 303.2V277.65C370.333 275.391 369.436 273.225 367.839 271.628C366.242 270.031 364.075 269.133 361.817 269.133C353.774 269.133 353.3 252.241 353.3 252.1C353.294 250.275 352.702 248.501 351.613 247.037C350.523 245.573 348.992 244.498 347.245 243.969C345.499 243.44 343.629 243.486 341.91 244.099C340.191 244.712 338.715 245.861 337.697 247.376C332.537 254.152 325.878 259.643 318.243 263.417C310.607 267.192 302.201 269.148 293.683 269.133C291.425 269.133 289.258 270.031 287.661 271.628C286.064 273.225 285.167 275.391 285.167 277.65V303.2C285.186 309.776 286.736 316.258 289.692 322.133C292.648 328.008 296.93 333.114 302.2 337.049V346.773L276.65 349.964V260.617C276.65 237.138 299.572 218.033 327.75 218.033ZM302.2 303.2V285.688C315.968 284.106 328.98 278.556 339.652 269.715C340.786 273.002 342.582 276.02 344.93 278.585C347.277 281.149 350.126 283.204 353.3 284.623V303.2C353.3 309.976 350.608 316.475 345.817 321.267C341.025 326.058 334.526 328.75 327.75 328.75C320.974 328.75 314.475 326.058 309.683 321.267C304.892 316.475 302.2 309.976 302.2 303.2ZM251.1 385.386C251.115 381.219 252.648 377.199 255.413 374.082C258.178 370.964 261.985 368.961 266.121 368.448L311.765 362.751C313.826 362.495 315.723 361.495 317.099 359.939C318.474 358.382 319.233 356.377 319.233 354.3V344.922C324.853 346.07 330.647 346.07 336.267 344.922V354.3C336.267 356.377 337.027 358.382 338.402 359.939C339.778 361.495 341.675 362.495 343.736 362.75C348.846 363.385 384.531 367.796 389.446 368.456C393.57 368.981 397.361 370.988 400.113 374.103C402.865 377.219 404.389 381.229 404.4 385.386V422.433H387.367V396.883C387.367 394.625 386.469 392.458 384.872 390.861C383.275 389.264 381.109 388.367 378.85 388.367C376.591 388.367 374.425 389.264 372.828 390.861C371.231 392.458 370.333 394.625 370.333 396.883V422.433H285.167V396.883C285.167 394.625 284.269 392.458 282.672 390.861C281.075 389.264 278.909 388.367 276.65 388.367C274.391 388.367 272.225 389.264 270.628 390.861C269.031 392.458 268.133 394.625 268.133 396.883V422.433H251.1V385.386ZM668.417 694.967H242.583V490.567H668.417V694.967ZM693.967 473.533H217.033V439.467H693.967V473.533Z" fill="white"/>
</svg>
