<svg width="48" height="48" viewBox="0 0 48 48" fill="none" xmlns="http://www.w3.org/2000/svg">
<g clip-path="url(#clip0_31_155)">
<g clip-path="url(#clip1_31_155)">
<path d="M17.6008 22.0598L19.4002 19.541C20.3134 18.2627 21.7954 17.5 23.3673 17.5H24.6327C26.2046 17.5 27.6866 18.2627 28.5998 19.5421L30.3993 22.0598C30.5726 22.3035 30.5163 22.6415 30.2736 22.8159C30.1772 22.8831 30.0678 22.9167 29.9583 22.9167C29.7904 22.9167 29.6225 22.8387 29.5174 22.6903L27.718 20.1715C27.0095 19.177 25.8547 18.5833 24.6327 18.5833H23.3673C22.1453 18.5833 20.9916 19.177 20.282 20.1704L18.4826 22.6903C18.3082 22.9329 17.9702 22.9882 17.7264 22.8159C17.4827 22.6415 17.4274 22.3024 17.6008 22.0598ZM37 15.3333C37 15.5543 36.8657 15.7548 36.6598 15.836L34.1671 16.8338L33.1693 19.3265C33.0881 19.5323 32.8877 19.6667 32.6667 19.6667C32.4457 19.6667 32.2453 19.5323 32.164 19.3265L31.1641 16.8283L28.6638 15.7743C28.4601 15.6876 28.3279 15.4861 28.3323 15.2651C28.3366 15.043 28.4753 14.8458 28.6822 14.7678L31.1673 13.8275L32.1629 11.3402C32.3254 10.9274 33.0047 10.9274 33.1683 11.3402L34.166 13.8329L36.6588 14.8307C36.8646 14.9119 37 15.1123 37 15.3333ZM34.9991 15.3333L33.5485 14.7527C33.4109 14.6974 33.3015 14.5891 33.2473 14.4515L32.6667 13.0009L32.086 14.4515C32.0297 14.5923 31.917 14.7028 31.7751 14.757L30.3343 15.303L31.7946 15.9173C31.9278 15.9736 32.034 16.0808 32.0871 16.2152L32.6678 17.6658L33.2484 16.2152C33.3037 16.0776 33.412 15.9682 33.5496 15.914L34.9991 15.3333ZM21.2917 13.7083C21.2917 12.2144 22.5061 11 24 11C25.4939 11 26.7083 12.2144 26.7083 13.7083C26.7083 15.2023 25.4939 16.4167 24 16.4167C22.5061 16.4167 21.2917 15.2023 21.2917 13.7083ZM22.375 13.7083C22.375 14.6043 23.1041 15.3333 24 15.3333C24.8959 15.3333 25.625 14.6043 25.625 13.7083C25.625 12.8124 24.8959 12.0833 24 12.0833C23.1041 12.0833 22.375 12.8124 22.375 13.7083ZM32.125 35.9167H15.875C15.576 35.9167 15.3333 36.1593 15.3333 36.4583C15.3333 36.7573 15.576 37 15.875 37H32.125C32.424 37 32.6667 36.7573 32.6667 36.4583C32.6667 36.1593 32.424 35.9167 32.125 35.9167ZM20.2083 31.5833C19.9093 31.5833 19.6667 31.826 19.6667 32.125C19.6667 32.424 19.9093 32.6667 20.2083 32.6667H27.7917C28.0907 32.6667 28.3333 32.424 28.3333 32.125C28.3333 31.826 28.0907 31.5833 27.7917 31.5833H20.2083ZM29.4167 26.7083C29.4167 26.4093 29.174 26.1667 28.875 26.1667H19.125C18.826 26.1667 18.5833 26.4093 18.5833 26.7083C18.5833 27.0073 18.826 27.25 19.125 27.25H28.875C29.174 27.25 29.4167 27.0073 29.4167 26.7083ZM17.0992 29.8977L15.2402 30.3982L14.7754 32.2561C14.7148 32.4977 14.4981 32.6667 14.25 32.6667C14.0019 32.6667 13.7842 32.4977 13.7246 32.2561L13.262 30.4047L11.4106 29.9421C11.169 29.8814 11 29.6648 11 29.4167C11 29.1686 11.169 28.9508 11.4106 28.8912L13.262 28.4287L13.7246 26.5773C13.7853 26.3357 14.0019 26.1667 14.25 26.1667C14.4981 26.1667 14.7158 26.3357 14.7754 26.5773L15.2358 28.4222L17.0797 28.8479C17.3223 28.9043 17.4957 29.1177 17.5 29.3668C17.5043 29.616 17.3397 29.8338 17.0992 29.8977Z" fill="#4A3AFF"/>
</g>
</g>
<circle cx="24" cy="24" r="23.5" stroke="#4A3AFF"/>
<defs>
<clipPath id="clip0_31_155">
<rect width="26" height="26" fill="white" transform="translate(12 11)"/>
</clipPath>
<clipPath id="clip1_31_155">
<rect width="26" height="26" fill="white" transform="translate(11 11)"/>
</clipPath>
</defs>
</svg>
