<svg width="547" height="377" viewBox="0 0 547 377" fill="none" xmlns="http://www.w3.org/2000/svg">
<path d="M7.20983 347.83C4.75983 328.06 24.2798 311.35 43.9698 308.28C63.6598 305.21 83.3998 311.55 102.91 315.61C122.41 319.67 144.36 321.02 160.65 309.55C181.48 294.89 186.3 264.05 207.73 250.28C224.43 239.55 246.17 242.76 263.28 250.74C272.96 255.25 281.18 262.85 290.43 268.14C332.37 292.13 335.2 341.15 370.83 348.46C409.41 356.38 430.34 337.57 437.62 324.52C446.95 307.81 462.5 264.45 424.39 234.32C408.91 222.08 393.63 209.03 382.24 192.92C365.19 168.79 365.31 131.9 387.11 111.96C402.05 98.2899 425 93.2999 435.16 75.7799C441.98 63.9999 441.05 48.8199 435.19 36.5399C429.33 24.2599 419.11 14.5399 408.01 6.66992" stroke="white" stroke-opacity="0.5" stroke-miterlimit="10"/>
<path d="M8.09016 348.82C6.40016 328.48 25.8102 310.91 46.0802 307.41C65.8702 304 85.9402 310.29 105.45 314.77C124.73 319.2 146.13 321.21 162.37 310.79C183.12 297.45 188.95 268.18 210.35 254.59C227.4 243.82 248.79 245.82 266.31 252.8C276.37 256.81 285.29 263.97 294.98 269.33C336.04 292.08 339.41 339.51 374.27 346.72C411.76 354.46 432.58 336.66 440.14 323.82C449.73 307.55 464.57 265.78 428.56 235.99C413.72 223.71 398.99 210.41 387.79 194.39C371.24 170.83 371.09 135.25 391.67 115.49C405.91 101.81 428.03 96.2401 438.14 78.9501C445.08 67.1301 444.65 52.1601 439.53 39.7901C434.36 27.3001 424.92 17.0401 414.26 8.58008" stroke="white" stroke-opacity="0.5" stroke-miterlimit="10"/>
<path d="M8.98005 349.8C8.05005 328.89 27.35 310.46 48.21 306.53C68.1 302.79 88.5001 309.01 108.01 313.92C127.06 318.72 147.92 321.4 164.11 312.02C184.77 300 191.59 272.25 213 258.89C230.37 248.05 251.47 248.87 269.37 254.86C279.84 258.36 289.43 265.09 299.56 270.53C339.7 292.09 343.66 337.87 377.74 344.98C414.14 352.54 434.84 335.75 442.7 323.12C452.54 307.3 466.68 267.07 432.77 237.66C418.56 225.33 404.4 211.79 393.38 195.87C377.34 172.88 376.92 138.61 396.27 119.02C409.8 105.33 431.1 99.19 441.17 82.12C448.22 70.25 448.31 55.49 443.92 43.03C439.44 30.32 430.79 19.52 420.56 10.48" stroke="white" stroke-opacity="0.5" stroke-miterlimit="10"/>
<path d="M9.86001 350.79C9.69001 329.32 28.88 310.03 50.33 305.66C70.32 301.59 91.04 307.74 110.56 313.09C129.38 318.24 149.69 321.61 165.83 313.27C186.41 302.58 194.23 276.37 215.62 263.21C233.33 252.32 254.13 251.91 272.4 256.93C283.28 259.91 293.53 266.22 304.11 271.73C343.3 292.15 347.88 336.24 381.19 343.25C416.5 350.64 437.08 334.85 445.23 322.43C455.32 307.05 468.76 268.35 436.94 239.34C423.35 226.95 409.82 213.15 398.93 197.36C383.45 174.9 382.7 141.96 400.83 122.57C413.66 108.85 434.09 102.13 444.16 85.3099C451.3 73.3699 451.93 58.8299 448.27 46.2999C444.49 33.3699 436.62 22.0299 426.82 12.4099" stroke="white" stroke-opacity="0.5" stroke-miterlimit="10"/>
<path d="M10.7402 351.78C11.3202 329.74 30.4102 309.6 52.4502 304.79C72.5502 300.41 93.5902 306.47 113.11 312.25C131.7 317.76 151.47 321.8 167.56 314.51C188.05 305.14 196.88 280.48 218.25 267.52C236.3 256.58 256.81 254.93 275.44 258.99C286.74 261.45 297.64 267.35 308.66 272.93C346.86 292.26 352.1 334.6 384.63 341.51C418.86 348.72 439.3 333.95 447.75 321.74C458.08 306.8 470.84 269.6 441.11 241.02C428.14 228.56 415.2 214.53 404.48 198.85C389.52 176.95 388.48 145.29 405.4 126.12C417.53 112.37 437.12 105.09 447.15 88.5001C454.4 76.5101 455.56 62.1601 452.62 49.5701C449.55 36.4001 442.44 24.5401 433.08 14.3501" stroke="white" stroke-opacity="0.5" stroke-miterlimit="10"/>
<path d="M11.6299 352.77C12.9699 330.16 31.9499 309.18 54.5799 303.93C74.7799 299.24 96.1499 305.2 115.67 311.42C134.03 317.27 153.27 322.04 169.3 315.76C189.73 307.75 199.54 284.6 220.9 271.84C239.29 260.85 259.53 257.94 278.5 261.06C290.23 262.99 301.77 268.49 313.24 274.13C350.43 292.41 356.35 332.97 388.1 339.77C421.24 346.81 441.55 333.04 450.3 321.04C460.87 306.53 472.97 270.79 445.31 242.69C432.96 230.14 420.61 215.9 410.07 200.33C395.63 178.99 394.3 148.6 410 129.66C421.43 115.86 440.19 108.04 450.18 91.68C457.54 79.64 459.23 65.47 457.01 52.83C454.65 39.41 448.31 27.04 439.38 16.27" stroke="white" stroke-opacity="0.5" stroke-miterlimit="10"/>
<path d="M12.5098 353.75C14.6098 330.57 33.4898 308.76 56.6998 303.05C76.9998 298.05 98.6898 303.9 118.22 310.57C136.36 316.77 155.05 322.24 171.02 316.99C191.36 310.31 202.19 288.71 223.52 276.14C242.25 265.1 262.23 260.91 281.53 263.11C293.69 264.49 305.86 269.62 317.79 275.32C353.95 292.59 360.56 331.32 391.54 338.03C423.59 344.89 443.77 332.13 452.82 320.34C463.62 306.27 475.07 271.95 449.47 244.36C437.74 231.72 425.98 217.28 415.61 201.81C401.69 181.04 400.06 151.9 414.55 133.2C425.28 119.35 443.2 110.99 453.16 94.8599C460.63 82.7699 462.87 68.7799 461.35 56.0899C459.71 42.4199 454.12 29.5399 445.63 18.1899" stroke="white" stroke-opacity="0.5" stroke-miterlimit="10"/>
<path d="M13.3999 354.74C16.2599 331 35.0299 308.35 58.8299 302.18C79.2399 296.88 101.25 302.61 120.78 309.74C138.69 316.27 156.84 322.45 172.76 318.24C193.02 312.89 204.85 292.84 226.17 280.45C245.24 269.37 264.96 263.88 284.59 265.17C297.19 266 309.97 270.76 322.37 276.51C357.48 292.81 364.81 329.68 395.02 336.28C425.98 342.96 446.02 331.2 455.38 319.63C466.41 305.99 477.24 273.06 453.68 246.02C442.57 233.26 431.4 218.64 421.2 203.27C407.79 183.06 405.87 155.16 419.15 136.72C429.18 122.8 446.26 113.92 456.18 98.0201C463.76 85.8801 466.56 72.0601 465.73 59.3201C464.83 45.3901 459.98 32.0101 451.92 20.0901" stroke="white" stroke-opacity="0.5" stroke-miterlimit="10"/>
<path d="M14.2798 355.73C17.8898 331.42 36.5598 307.95 60.9498 301.31C81.4698 295.72 103.8 301.32 123.33 308.9C141.01 315.76 158.62 322.65 174.49 319.48C194.66 315.46 207.51 296.96 228.8 284.76C248.21 273.64 267.67 266.83 287.63 267.23C300.66 267.49 314.06 271.9 326.93 277.71C360.97 293.06 369.04 328.04 398.47 334.55C428.34 341.06 448.24 330.3 457.91 318.94C469.16 305.73 479.4 274.14 457.86 247.7C447.36 234.81 436.78 220.02 426.76 204.76C413.86 185.12 411.63 158.43 423.72 140.27C433.04 126.27 449.3 116.88 459.18 101.21C466.87 89.02 470.24 75.36 470.09 62.59C469.93 48.4 465.81 34.53 458.19 22.02" stroke="white" stroke-opacity="0.5" stroke-miterlimit="10"/>
<path d="M15.1602 356.71C19.5302 331.83 38.1002 307.54 63.0602 300.43C83.6902 294.55 106.34 300.01 125.87 308.05C143.33 315.24 160.38 322.84 176.2 320.72C196.28 318.02 210.15 301.09 231.42 289.07C251.18 277.91 270.38 269.76 290.66 269.29C304.13 268.98 318.14 273.06 331.48 278.9C364.44 293.34 373.26 326.39 401.91 332.8C430.69 339.13 450.44 329.37 460.43 318.23C471.89 305.45 481.57 275.16 462.02 249.36C452.14 236.33 442.15 221.39 432.3 206.23C419.91 187.16 417.36 161.66 428.28 143.8C436.89 129.71 452.33 119.82 462.17 104.39C469.97 92.1499 473.92 78.6599 474.45 65.8499C475.04 51.3899 471.65 37.0299 464.45 23.9399" stroke="white" stroke-opacity="0.5" stroke-miterlimit="10"/>
<path d="M16.0498 357.7C21.1798 332.25 39.6398 307.15 65.1898 299.56C85.9298 293.4 108.9 298.7 128.43 307.21C145.67 314.72 162.17 323.04 177.94 321.96C197.93 320.59 212.82 305.21 234.06 293.38C254.16 282.18 273.1 272.68 293.71 271.35C307.62 270.45 322.24 274.22 336.05 280.1C367.91 293.65 377.49 324.76 405.38 331.06C433.07 337.22 452.67 328.45 462.98 317.53C474.65 305.17 483.81 276.13 466.22 251.03C456.97 237.83 447.55 222.77 437.88 207.71C426 189.21 423.11 164.88 432.87 147.34C440.76 133.15 455.39 122.78 465.18 107.57C473.09 95.2801 477.63 81.9601 478.82 69.1101C480.18 54.3901 477.5 39.5301 470.73 25.8601" stroke="white" stroke-opacity="0.5" stroke-miterlimit="10"/>
<path d="M16.9302 358.69C22.8202 332.68 41.1802 306.77 67.3102 298.69C88.1602 292.25 111.45 297.39 130.98 306.38C148 314.21 163.94 323.25 179.67 323.21C199.58 323.16 215.49 309.35 236.69 297.7C257.14 286.46 275.81 275.6 296.75 273.42C311.09 271.93 326.32 275.4 340.61 281.3C371.36 293.99 381.72 323.12 408.83 329.33C435.44 335.31 454.87 327.54 465.51 316.84C477.39 304.9 486.07 277.08 470.4 252.71C461.79 239.32 452.93 224.15 443.44 209.2C432.06 191.27 428.83 168.1 437.44 150.89C444.59 136.58 458.43 125.74 468.18 110.76C476.21 98.4201 481.34 85.26 483.18 72.38C485.32 57.4 483.33 42.04 477 27.8" stroke="white" stroke-opacity="0.5" stroke-miterlimit="10"/>
<path d="M17.8198 359.67C24.4598 333.09 42.7298 306.38 69.4398 297.82C90.3998 291.1 114.02 296.08 133.54 305.54C150.34 313.68 165.73 323.44 181.4 324.45C201.22 325.72 218.15 313.48 239.33 302.01C260.13 290.74 278.53 278.49 299.8 275.48C314.58 273.39 330.4 276.59 345.17 282.5C374.8 294.35 385.94 321.54 412.28 327.59C437.79 333.45 457.07 326.61 468.05 316.14C480.13 304.62 488.38 277.97 474.58 254.38C466.63 240.78 458.32 225.53 449.01 210.68C438.14 193.33 434.54 171.29 442.02 154.42C448.43 139.98 461.48 128.69 471.19 113.93C479.34 101.55 485.07 88.56 487.55 75.62C490.48 60.38 489.18 44.52 483.28 29.7" stroke="white" stroke-opacity="0.5" stroke-miterlimit="10"/>
<path d="M18.7002 360.66C26.1002 333.51 44.2702 306 71.5602 296.95C92.6302 289.96 116.58 294.76 136.09 304.7C152.67 313.15 167.5 323.64 183.13 325.69C202.86 328.28 220.81 317.62 241.96 306.32C263.11 295.02 281.23 281.38 302.84 277.55C318.05 274.85 334.47 277.79 349.73 283.7C378.23 294.74 390.16 319.91 415.74 325.86C440.16 331.54 459.28 325.69 470.59 315.46C482.87 304.35 490.74 278.83 478.77 256.07C471.5 242.25 463.7 226.93 454.58 212.17C444.2 195.39 440.22 174.48 446.6 157.97C452.24 143.39 464.53 131.65 474.19 117.12C482.45 104.69 488.79 91.8699 491.91 78.8899C495.63 63.3999 495.01 47.0299 489.55 31.6299" stroke="white" stroke-opacity="0.5" stroke-miterlimit="10"/>
<path d="M19.5801 361.65C27.7401 333.93 45.8201 305.63 73.6801 296.08C94.8701 288.82 119.14 293.43 138.64 303.86C155.01 312.62 169.28 323.83 184.86 326.93C204.5 330.84 223.48 321.75 244.6 310.62C266.1 299.29 283.93 284.25 305.89 279.6C321.52 276.29 338.55 278.99 354.3 284.89C381.67 295.13 394.4 318.26 419.2 324.11C442.53 329.61 461.48 324.75 473.13 314.75C485.6 304.04 493.17 279.63 482.96 257.73C476.4 243.66 469.09 228.3 460.15 213.64C450.27 197.44 445.87 177.63 451.18 161.5C456.03 146.77 467.59 134.6 477.2 120.29C485.58 107.81 492.53 95.17 496.28 82.14C500.81 66.4 500.86 49.52 495.83 33.54" stroke="white" stroke-opacity="0.5" stroke-miterlimit="10"/>
<path d="M20.4702 362.63C29.3902 334.35 47.3702 305.25 75.8102 295.2C97.1102 287.67 121.72 292.09 141.2 303.02C157.36 312.08 171.06 324.02 186.59 328.17C206.15 333.39 226.15 325.89 247.23 314.93C269.08 303.57 286.62 287.12 308.93 281.66C324.98 277.73 342.61 280.21 358.86 286.08C385.09 295.55 398.63 316.61 422.65 322.36C444.89 327.69 463.67 323.79 475.66 314.04C488.32 303.73 495.64 280.41 487.14 259.39C481.34 245.05 474.46 229.68 465.71 215.11C456.32 199.49 451.49 180.78 455.76 165.03C459.79 150.14 470.65 137.55 480.21 123.46C488.71 110.94 496.28 98.48 500.65 85.39C505.99 69.41 506.7 52.02 502.11 35.46" stroke="white" stroke-opacity="0.5" stroke-miterlimit="10"/>
<path d="M21.3501 363.62C31.0201 334.77 48.9201 304.89 77.9301 294.33C99.3501 286.54 124.29 290.76 143.75 302.18C159.7 311.54 172.84 324.21 188.32 329.41C207.79 335.95 228.81 330.03 249.87 319.24C272.08 307.86 289.32 289.99 311.98 283.72C328.45 279.16 346.67 281.46 363.43 287.28C388.52 295.99 402.87 314.97 426.11 320.63C447.26 325.78 465.87 322.86 478.2 313.35C491.05 303.44 498.2 281.18 491.32 261.07C486.32 246.45 479.83 231.07 471.27 216.6C462.37 201.56 457.08 183.95 460.33 168.58C463.51 153.54 473.69 140.52 483.21 126.65C491.83 114.09 500.02 101.81 505.01 88.6599C511.17 72.4399 512.54 54.5299 508.38 37.3899" stroke="white" stroke-opacity="0.5" stroke-miterlimit="10"/>
<path d="M22.2402 364.61C32.6702 335.19 50.4802 304.53 80.0502 293.46C101.59 285.4 126.86 289.42 146.3 301.34C162.04 310.99 174.63 324.38 190.05 330.65C209.45 338.46 231.48 334.17 252.5 323.55C275.06 312.15 291.99 292.85 315.02 285.78C331.9 280.59 350.72 282.72 367.99 288.47C391.93 296.44 407.11 313.28 429.57 318.88C449.64 323.81 468.07 321.9 480.74 312.64C493.78 303.12 500.82 281.93 495.51 262.73C491.38 247.81 485.21 232.45 476.84 218.07C468.43 203.61 462.64 187.11 464.91 172.11C467.21 156.91 476.75 143.47 486.21 129.82C494.95 117.21 503.76 105.12 509.37 91.9C516.35 75.46 518.38 57.01 514.65 39.29" stroke="white" stroke-opacity="0.5" stroke-miterlimit="10"/>
<path d="M23.1201 365.59C34.3101 335.6 52.0301 304.16 82.1701 292.58C103.83 284.26 129.44 288.07 148.85 300.49C164.39 310.43 176.41 324.56 191.77 331.88C211.09 341.02 234.14 338.31 255.12 327.85C278.03 316.43 294.66 295.7 318.05 287.83C335.34 282.01 354.76 284.01 372.54 289.66C395.34 296.9 411.33 311.63 433.01 317.14C452 321.89 470.24 320.94 483.26 311.94C496.48 302.8 503.5 282.71 499.68 264.4C496.51 249.19 490.56 233.84 482.4 219.55C474.48 205.68 468.17 190.28 469.48 175.65C470.85 160.3 479.8 146.43 489.21 133.01C498.08 120.36 507.51 108.46 513.74 95.17C521.55 78.5 524.22 59.52 520.93 41.22" stroke="white" stroke-opacity="0.5" stroke-miterlimit="10"/>
<path d="M24 366.58C35.95 336.03 53.59 303.81 84.29 291.72C106.07 283.14 132.02 286.73 151.41 299.67C166.75 309.91 178.2 324.78 193.51 333.14C212.74 343.6 236.84 342.51 257.77 332.18C281.06 320.79 297.34 298.58 321.11 289.91C338.81 283.46 358.81 285.35 377.12 290.87C398.77 297.4 415.57 310.01 436.48 315.41C454.38 319.98 472.44 319.98 485.81 311.25C499.22 302.49 506.28 283.53 503.87 266.08C501.74 250.59 495.93 235.24 487.97 221.03C480.53 207.74 473.68 193.47 474.06 179.19C474.47 163.71 482.89 149.41 492.22 136.19C501.23 123.52 511.26 111.8 518.11 98.4299C526.75 81.5499 530.07 62.0199 527.21 43.1499" stroke="white" stroke-opacity="0.5" stroke-miterlimit="10"/>
<path d="M24.8901 367.57C37.5901 336.45 55.1701 303.5 86.4201 290.85C108.34 282.05 134.61 285.38 153.97 298.83C169.12 309.35 179.99 324.98 195.25 334.38C214.4 346.16 239.51 346.64 260.41 336.49C284.05 325.06 300.02 301.43 324.16 291.97C342.26 284.88 362.85 286.7 381.69 292.06C402.2 297.9 419.81 308.36 439.95 313.66C456.76 318.06 474.64 319.01 488.36 310.54C501.95 302.16 509.12 284.39 508.07 267.74C507.08 252 501.3 236.63 493.55 222.5C486.58 209.8 479.18 196.68 478.65 182.72C478.06 167.13 485.95 152.35 495.23 139.36C504.36 126.64 515.02 115.13 522.48 101.68C531.95 84.5901 535.91 64.5101 533.49 45.0601" stroke="white" stroke-opacity="0.5" stroke-miterlimit="10"/>
<path d="M25.77 368.55C39.23 336.86 56.71 303.1 88.54 289.97C110.57 280.88 137.2 284.02 156.52 297.98C171.47 308.79 181.77 325.16 196.97 335.61C216.04 348.71 242.16 350.76 263.04 340.79C287.03 329.33 302.67 304.28 327.2 294.02C345.7 286.29 366.87 288.09 386.24 293.25C405.61 298.41 424.03 306.72 443.39 311.92C459.11 316.14 476.81 318.03 490.88 309.84C504.66 301.83 511.98 285.34 512.24 269.41C512.5 253.47 506.63 238.03 499.1 223.98C492.6 211.87 484.63 199.93 483.22 186.26C481.6 170.58 488.99 155.31 498.23 142.54C507.47 129.77 518.77 118.47 526.84 104.93C537.15 87.64 541.75 67 539.76 46.97" stroke="white" stroke-opacity="0.5" stroke-miterlimit="10"/>
</svg>
