<svg width="600" height="134" viewBox="0 0 600 134" fill="none" xmlns="http://www.w3.org/2000/svg">
<path d="M591.937 20.9247V27.347H592.88V24.8339H593.787C594.207 24.7292 594.66 24.7292 595.08 24.8339C595.533 25.183 595.743 25.7414 595.673 26.2999V27.1027H596.93C596.93 26.998 596.93 26.8933 596.93 26.7885V25.8461C596.93 25.4622 596.79 25.1131 596.58 24.8339C596.3 24.4849 595.917 24.2754 595.463 24.2056C595.81 24.1358 596.127 24.066 596.403 23.9264C596.823 23.6123 597.033 23.1236 596.997 22.6001C597.067 21.9369 596.683 21.2737 596.057 20.9945C595.463 20.82 594.87 20.7501 594.277 20.7501L591.937 20.9247ZM595.95 22.8793C595.95 23.3679 595.707 23.7519 595.287 23.9264C594.94 23.9613 594.553 23.9613 594.207 23.9264H592.88V21.5529H593.857C594.347 21.518 594.8 21.6227 595.253 21.8322C595.567 22.0416 595.743 22.3906 595.673 22.7746L595.95 22.8793ZM600 24.0311C600 22.4953 599.373 21.0294 598.253 19.9823C596.613 18.3418 594.137 17.8182 591.973 18.7257C589.773 19.5983 588.343 21.6926 588.343 24.0311C588.343 25.532 588.97 26.998 590.017 28.08C591.693 29.7205 594.17 30.2091 596.337 29.3365C598.533 28.4639 599.93 26.3697 600 24.0311ZM594.137 18.97C595.497 18.97 596.79 19.5285 597.73 20.4709C598.673 21.4133 599.197 22.7048 599.197 24.0311C599.197 25.3924 598.673 26.6838 597.73 27.6262C596.79 28.6035 595.497 29.162 594.137 29.1271C592.81 29.1271 591.483 28.6035 590.54 27.6262C589.6 26.6838 589.077 25.3924 589.11 24.0311C589.077 22.7048 589.6 21.4133 590.54 20.4709C591.483 19.5285 592.81 18.97 594.137 18.97ZM124.852 17.8182H181.815V29.1969L150.052 64.799H181.815V76.422H123.316V64.799L154.695 29.1969H125.026V17.8182H124.852ZM535.427 17.8182L563.663 52.827V17.8182H581.29V76.422H563.663L535.427 41.0643V76.422H517.767V17.9229L535.427 17.8182ZM484.013 17.8182H504.223V76.422H484.013V17.8182ZM435.567 17.8182H455.777V64.799H477.523V76.422H435.463V17.9229L435.567 17.8182ZM193.613 17.8182H240.558V29.4412H213.717V41.3086H238.883V52.9666H213.717V64.7293H242.199V76.422H193.787V17.9229L193.613 17.8182ZM284.956 47.5563C282.723 49.162 280 49.965 277.243 49.895H273.997V29.7205H277.243C279.442 29.6158 281.64 30.0346 283.63 30.9072C286.318 32.792 287.749 35.9683 287.435 39.2493C287.853 42.286 286.946 45.3226 284.956 47.6613V47.5563ZM291.309 19.3889C286.003 18.272 280.593 17.7135 275.148 17.7833H253.508V76.3873H273.997V62.5653H279.407C283.595 62.5303 287.784 61.8323 291.798 60.506C300.733 57.6786 306.841 49.4063 306.911 40.0173C307.12 30.3837 300.628 21.8671 291.309 19.4936V19.3889ZM376.09 17.888H422.933V29.5111H396.057V41.3783H421.257V53.0363H396.057V64.799H424.607V76.5266H376.16V17.9229L376.09 17.888ZM346.247 47.6613C343.98 49.232 341.29 50.0696 338.533 49.9996H335.217V29.7903H338.57C340.767 29.7205 342.897 30.1044 344.92 30.977C347.61 32.8618 349.077 36.038 348.76 39.319C349.18 42.3556 348.273 45.4273 346.283 47.731L346.247 47.6613ZM352.567 19.4587C347.26 18.3418 341.883 17.8182 336.44 17.8531H314.799V76.492H335.287V62.5653H340.767C344.957 62.5303 349.143 61.8323 353.16 60.506C362.06 57.6436 368.133 49.4063 368.237 40.0173C368.447 30.3837 361.99 21.8671 352.637 19.4936L352.567 19.4587ZM88.7957 18.1672V76.7013H47.26L65.515 56.0033V39.1793H23.2112V18.1672H88.7957ZM0 56.143V114.642H65.6543V93.49H23.2112V76.7013L41.466 55.9683L0 56.143ZM133.822 106.265L133.229 108.394C133.019 109.267 132.81 110.209 132.67 111.152C132.461 110.314 132.286 109.441 132.077 108.604C131.902 107.766 131.728 106.963 131.483 106.16C131.03 104.31 130.541 102.6 130.122 100.855C129.668 99.1096 129.459 98.1323 129.11 96.806L128.237 93.6996H123.386L126.771 104.38L129.983 114.747H135.497L139.232 100.052L139.93 96.9456L140.768 100.471L144.607 114.782H149.878L151.344 109.965L153.264 103.298L156.126 93.8393H152.077L148.551 107.591L147.679 111.256L146.841 107.556C146.353 105.741 145.829 103.996 145.375 102.181L144.154 97.3296C143.839 96.143 143.525 94.956 143.141 93.7693H137.417L133.997 106.335L133.822 106.265ZM160.942 93.6646V114.642H177.836V111.221H165.48V105.288H176.719V101.867H165.48V97.0853H177.103V93.6646H160.942ZM217.487 100.331C217.347 99.319 217.068 98.3766 216.684 97.4343C216.37 96.771 215.916 96.1776 215.428 95.6193C214.974 95.2353 214.52 94.8513 214.031 94.5023C212.042 93.525 209.843 93.0363 207.609 93.0713C206.667 93.0713 205.759 93.141 204.817 93.2456C201.187 93.4203 197.906 95.6543 196.475 99.04C195.812 100.645 195.462 102.391 195.462 104.171C195.183 107.766 196.859 111.221 199.86 113.246C203.979 115.48 208.901 115.724 213.194 113.839C214.52 113.351 215.672 112.408 216.475 111.221C217.103 110.139 217.487 108.883 217.592 107.591H213.089C212.914 108.429 212.565 109.232 212.042 109.93C210.716 111.221 208.866 111.85 207.016 111.71C205.131 111.815 203.246 111.117 201.885 109.79C200.593 108.115 199.93 106.056 200 103.961C199.616 100.645 201.71 97.574 204.921 96.7363C205.689 96.5266 206.492 96.457 207.295 96.457C209.319 96.2823 211.309 97.155 212.496 98.7956C212.775 99.2493 212.914 99.773 212.914 100.331H217.487ZM242.548 108.743C242.513 107.766 242.164 106.823 241.571 106.056C240.768 105.253 239.756 104.694 238.604 104.45C239.407 104.241 240.14 103.961 240.803 103.508C242.339 102.495 243.176 100.715 243.037 98.9003C242.897 97.0503 241.745 95.4446 240.07 94.677C238.08 93.8393 235.881 93.49 233.717 93.6296H223.386V114.607H227.923V106.335H233.613C235.428 106.335 237.173 106.335 237.906 108.394C238.045 108.918 238.15 109.441 238.185 109.965V111.64C238.185 112.652 238.36 113.665 238.674 114.607H243.421C243.072 114.223 242.862 113.734 242.827 113.246L242.373 108.743H242.548ZM233.647 97.0503C234.799 97.0153 235.951 97.155 236.998 97.539C237.941 97.958 238.569 98.9003 238.534 99.9123C238.569 100.576 238.325 101.204 237.906 101.693C236.928 102.565 235.637 103.019 234.346 102.914H227.923V97.0503H233.647ZM250.995 93.6646V114.642H267.888V111.221H255.532V105.288H266.771V101.867H255.532V97.0853H267.295V93.6646H250.995ZM282.723 93.6646L272.042 114.607H276.719L278.988 110.104H291.832L294.066 114.712H298.883L293.857 104.275C292.112 100.715 290.332 97.155 288.551 93.6646H282.723ZM285.48 96.806L290.262 106.614H280.663L285.48 96.806ZM298.29 93.6296V97.155H307.051V114.642H311.483V97.225H320.244V93.6296H298.29ZM325.305 93.6296V114.607H342.163V111.186H329.808V105.253H341.047V101.832H329.808V97.0503H341.57V93.6296H325.305ZM379.79 100.296C379.86 99.1446 379.65 98.0276 379.233 96.9806C378.847 96.143 378.29 95.4446 377.557 94.8863C376.02 93.7343 374.137 93.0713 372.18 93.0363H370.297C367.363 92.792 364.467 93.7343 362.233 95.6193C361.22 96.6663 360.663 98.0276 360.697 99.4236C360.697 101.762 362.163 103.857 364.363 104.59C365.237 104.939 366.107 105.183 367.05 105.288L372.497 106.021C373.647 106.021 374.763 106.474 375.603 107.277C375.917 107.661 376.057 108.15 376.02 108.638C376.057 109.162 375.88 109.651 375.603 110.104C375.357 110.419 375.08 110.698 374.763 110.907C373.3 111.57 371.727 111.919 370.123 111.85C368.133 112.129 366.143 111.326 364.85 109.79C364.503 109.127 364.293 108.429 364.293 107.696H359.93C359.897 110.174 361.013 112.513 363.003 114.014C364.957 115.48 367.54 115.933 369.913 115.166H372.39C373.577 115.096 374.73 114.851 375.81 114.502C377.523 114.049 378.953 112.967 379.79 111.431C380.663 109.895 380.803 108.08 380.28 106.44C379.547 104.485 377.87 103.124 375.81 102.775C375.217 102.6 374.59 102.495 373.927 102.391L369.25 101.727C368.237 101.658 367.227 101.483 366.283 101.134C365.62 100.82 365.167 100.157 365.13 99.4236C365.167 98.621 365.653 97.853 366.353 97.4693C367.68 96.806 369.11 96.492 370.577 96.5266C370.857 96.5266 374.38 96.5266 375.427 98.7256C375.673 99.319 375.81 99.9823 375.743 100.645L379.79 100.296ZM386.177 104.031C385.933 108.359 388.343 112.373 392.25 114.223C394.137 114.886 396.127 115.235 398.117 115.27C399.093 115.27 400.07 115.166 401.013 114.991C402.303 114.782 403.56 114.398 404.713 113.769C408.063 111.78 410.087 108.08 409.913 104.171C409.947 101.413 409.077 98.7256 407.4 96.5616C406.77 95.8286 406.04 95.2353 405.237 94.7466C403.107 93.4553 400.663 92.792 398.22 92.8966C395.217 92.792 392.32 93.6646 389.913 95.4446C387.433 97.574 386.04 100.75 386.177 104.031ZM390.68 103.787C390.61 102.042 391.133 100.296 392.18 98.8653C393.683 97.155 395.88 96.143 398.22 96.2126C400.56 96.108 402.827 97.225 404.19 99.1446C405.06 100.68 405.48 102.391 405.447 104.171C405.62 106.23 404.887 108.255 403.42 109.721C401.99 111.186 399.967 111.989 397.907 111.85C395.743 111.954 393.683 110.977 392.32 109.267C391.203 107.661 390.647 105.741 390.68 103.787ZM416.58 93.6296V114.642H433.09V111.186H420.977V93.6646L416.58 93.6296ZM454.833 104.729C455.01 106.579 454.487 108.429 453.403 109.93C452.18 111.221 450.437 111.919 448.69 111.78C446.073 111.954 443.733 110.279 442.967 107.766C442.723 106.823 442.583 105.881 442.617 104.939V93.4203H437.87V104.415C437.87 106.021 438.08 107.626 438.5 109.162C438.813 110.244 439.407 111.221 440.14 112.024C441.817 113.734 444.083 114.747 446.457 114.956C447.12 114.991 447.82 114.991 448.517 114.956C449.39 114.956 450.263 114.851 451.133 114.712C452.113 114.572 453.053 114.293 453.997 113.909C455.043 113.42 455.987 112.722 456.79 111.85C458.253 110.07 459.057 107.836 459.023 105.497V93.3506H454.59V104.485L454.833 104.729ZM463.873 93.595V97.0853H472.6V114.607H477.067V97.155H485.793V93.595H463.873ZM490.923 93.595V114.537H495.393V93.6646L490.923 93.595ZM502.023 103.996C501.747 108.359 504.19 112.408 508.133 114.258C509.983 114.921 511.973 115.27 513.96 115.305C514.94 115.305 515.917 115.2 516.893 115.026C518.183 114.816 519.407 114.398 520.56 113.804C523.943 111.815 525.933 108.115 525.76 104.206C525.793 101.483 524.92 98.7956 523.247 96.6316C522.617 95.8986 521.883 95.2703 521.083 94.7816C518.987 93.49 516.51 92.862 514.067 92.9316C511.1 92.827 508.167 93.7343 505.793 95.4796C503.28 97.6086 501.883 100.785 502.023 104.066V103.996ZM506.563 103.752C506.457 102.007 506.98 100.262 508.063 98.8303C509.563 97.0853 511.763 96.108 514.067 96.1776C516.44 96.073 518.673 97.155 520.033 99.1096C520.907 100.645 521.36 102.356 521.327 104.101C521.467 106.16 520.733 108.22 519.303 109.686C517.837 111.152 515.847 111.954 513.753 111.85C511.587 111.885 509.53 110.942 508.167 109.267C507.087 107.626 506.493 105.707 506.563 103.752ZM532.427 93.49V114.537H536.473V96.3173L538.463 99.5633L540.103 102.042C541.013 103.473 541.99 104.834 542.967 106.09L545.793 110.139L548.55 114.188H554.59V93.176H550.923V110.663L548.447 106.614C547.643 105.462 546.91 104.206 546.107 103.054L543.873 99.773L542.303 97.3296L539.407 93.3156L532.427 93.49ZM581.71 100.262C581.78 99.1096 581.57 97.9926 581.153 96.9456C580.767 96.108 580.21 95.375 579.477 94.8513C577.94 93.6996 576.057 93.0713 574.137 92.9666H572.18C569.25 92.7223 566.353 93.6996 564.12 95.6193C563.107 96.6316 562.547 97.9926 562.583 99.389C562.583 101.727 564.05 103.787 566.247 104.555C567.12 104.904 567.993 105.148 568.9 105.253L574.38 105.986C575.533 105.986 576.65 106.44 577.487 107.242C577.8 107.626 577.94 108.115 577.907 108.604C577.907 109.127 577.767 109.616 577.487 110.07C577.243 110.384 576.963 110.663 576.65 110.872C575.183 111.536 573.613 111.85 572.007 111.85C570.017 112.094 568.027 111.291 566.737 109.721C566.387 109.092 566.177 108.394 566.177 107.696H561.817C561.817 110.07 562.933 112.303 564.817 113.769C566.737 115.2 569.213 115.689 571.483 115.061H573.997C575.183 114.956 576.337 114.747 577.453 114.363C579.127 113.944 580.56 112.827 581.397 111.326C582.27 109.79 582.41 107.975 581.883 106.3C581.153 104.38 579.44 102.984 577.453 102.67C576.823 102.495 576.16 102.356 575.533 102.251L570.857 101.623C569.843 101.553 568.83 101.344 567.887 100.995C567.19 100.715 566.77 100.052 566.737 99.319C566.77 98.4813 567.227 97.7483 567.957 97.3296C569.25 96.6663 570.717 96.3523 572.18 96.422C572.46 96.422 575.987 96.422 577.033 98.586C577.277 99.2143 577.383 99.8776 577.347 100.541L581.71 100.262Z" fill="black"/>
</svg>
